<?xml version="1.0" standalone="no"?>
<!DOCTYPE svg PUBLIC "-//W3C//DTD SVG 1.1//EN" "http://www.w3.org/Graphics/SVG/1.1/DTD/svg11.dtd" >
<svg xmlns="http://www.w3.org/2000/svg">
<metadata>Generated by IcoMoon</metadata>
<defs>
<font id="eweb" horiz-adv-x="1024">
<font-face units-per-em="1024" ascent="896" descent="-128" />
<missing-glyph horiz-adv-x="1024" />
<glyph unicode="&#x20;" horiz-adv-x="0" d="" />
<glyph unicode="&#xe601;" glyph-name="menu-left" d="M97.796 674.037h828.665c22.878 0 41.425 18.547 41.425 41.425s-18.547 41.425-41.425 41.425h-828.665c-22.878 0-41.425-18.547-41.425-41.425s18.547-41.425 41.425-41.425zM926.461 426.501h-509.541c-22.878 0-41.425-18.547-41.425-41.425s18.547-41.425 41.425-41.425h509.541c22.878 0 41.425 18.547 41.425 41.425s-18.547 41.425-41.425 41.425zM926.461 94.28h-828.665c-22.878 0-41.425-18.547-41.425-41.425s18.547-41.425 41.425-41.425h828.665c22.878 0 41.425 18.547 41.425 41.425s-18.547 41.425-41.425 41.425zM262.19 591.652l-207.126-207.126 207.126-207.126z" />
<glyph unicode="&#xe602;" glyph-name="search" d="M461.406 821.493c210.022 0 380.871-170.85 380.871-380.842 0-210.018-170.849-380.9-380.871-380.9s-380.873 170.882-380.873 380.9c0 209.992 170.85 380.842 380.873 380.842M461.406 884.709c-245.272 0-444.088-198.783-444.088-444.058 0-245.271 198.817-444.116 444.088-444.116 245.238 0 444.087 198.845 444.087 444.116 0 245.274-198.849 444.058-444.087 444.058v0zM1008.684-53.779l-41.365-41.36-223.479 223.478 41.362 41.36z" />
<glyph unicode="&#xe604;" glyph-name="arrow-left" d="M300.304 405.103c-0.486-0.973-1.338-1.824-1.703-2.797-8.514-17.758-5.717-39.651 9.365-53.882l343.725-325.116c18.731-17.758 48.287-16.907 66.045 1.824s16.907 48.287-1.824 66.045l-308.453 291.79 307.236 296.047c18.609 17.881 19.096 47.436 1.216 66.045-9.122 9.487-21.407 14.351-33.57 14.352-11.676 0-23.353-4.378-32.353-13.137l-340.563-328.278c-0.608-0.608-0.851-1.581-1.581-2.189-0.487-0.487-0.973-0.851-1.581-1.338-2.797-2.797-4.135-6.203-5.959-9.365v0z" />
<glyph unicode="&#xe605;" glyph-name="star" d="M726 8q-9 0-17 5l-197 102-197-102q-9-5-19.5-4.5t-19.5 6.5q-19 14-15 36l38 218-160 154q-16 16-9 38 2 6 6.5 11.5t10.5 9 13 4.5l220 31 99 198q10 21 33 21 11 0 20-5.5t13-15.5l99-198 220-31q23-4 30-25 1-4 1.5-8.5t0-8.5-2-7.5-3.5-7-5-6.5l-160-154 38-218q2-10-2-19.5t-13-16.5q-10-7-22-7v0zM512 154q6 0 11.5-1t10.5-4l189-98-36 208q-4 24 14 41l153 148-212 30q-24 4-35 26l-95 190-95-190q-3-7-8.5-12.5t-12.5-9-14-4.5l-212-30 153-148q18-17 14-41l-36-208 189 98q10 5 22 5v0z" />
<glyph unicode="&#xe606;" glyph-name="book" d="M979.2 224l-422.4-224c0 0-422.4 83.2-460.8 96s-38.4 51.2-32 64c0 12.8 25.6 44.8 44.8 38.4s454.4-102.4 454.4-102.4l441.6 236.8c0 0 19.2 19.2 6.4 38.4-6.4 25.6-32 12.8-32 12.8l-422.4-217.6c0 0-441.6 96-467.2 102.4s-32 32-32 57.6c0 25.6 38.4 44.8 64 38.4s441.6-102.4 441.6-102.4l441.6 236.8c0 0 19.2 19.2 6.4 38.4s-38.4 6.4-38.4 6.4l-416-211.2c0 0-435.2 96-460.8 102.4-32 6.4-38.4 38.4-32 57.6s32 44.8 70.4 32c38.4-6.4 416-89.6 428.8-83.2s441.6 236.8 441.6 236.8c6.4 32-25.6 32-25.6 32s-345.6 57.6-416 70.4c-70.4 12.8-83.2 0-83.2 0l-384-198.4c0 0-57.6-6.4-83.2-76.8-25.6-57.6 32-96 32-108.8 0-6.4-32-12.8-38.4-64-6.4-76.8 44.8-96 38.4-102.4 0-6.4-25.6 0-38.4-64-12.8-83.2 57.6-115.2 57.6-115.2l499.2-115.2 441.6 249.6c0 0 19.2 19.2 6.4 32-12.8 19.2-32 6.4-32 6.4zM518.4 729.6l268.8-51.2-128-70.4-256 57.6 115.2 64z" />
<glyph unicode="&#xe607;" glyph-name="leave" d="M512 862.74c-264 0-478.74-214.74-478.74-478.74s214.74-478.74 478.74-478.74 478.74 214.74 478.74 478.74-214.74 478.74-478.74 478.74zM512-14.94c-220.232 0.239-398.701 178.707-398.94 398.917v0.023c0.239 220.232 178.707 398.701 398.917 398.94h0.023c220.219-0.273 398.667-178.721 398.94-398.914v-0.026c-0.273-220.219-178.721-398.667-398.914-398.94h-0.026zM697.46 266.64l-165.48 95.76v261c0 22.053-17.877 39.93-39.93 39.93s-39.93-17.877-39.93-39.93v0-279.3c0-14.82 18.42-27.18 30.36-34.020 3.3-4.98 12.42-9.48 17.94-12.72l164.58-99.72c19.080-11.1 39.72-4.5 50.82 14.64 10.92 18.96 0.72 43.38-18.36 54.36z" />
<glyph unicode="&#xe60b;" glyph-name="net" horiz-adv-x="1099" d="M694.976 807.36l-2.88 1.088c-18.011 6.317-39.874 12.022-62.321 16.046l-2.703 0.402c2.857-0.273-0.331 0.2-3.523 0.658l-5.821 0.686c-20.4 3.496-44.001 5.584-68.056 5.759l-0.168 0.001c-247.424 0-448-200.576-448-448v0-0.064c0-128.384 54.336-243.776 140.8-325.504 79.826-75.806 187.998-122.432 307.061-122.432 0.049 0 0.098 0 0.147 0h-0.008c247.36 0 448 200.64 448 448-0.123 195.199-125.101 361.176-299.39 422.4l-3.138 0.96zM732.928 52.48c-10.343-5.903-23.028-12.143-36.084-17.679l-2.508-0.945-0.256 0.768c-32-13.248-65.792-22.848-101.44-27.008l-0.384 0.384c-58.222 39.646-105.508 91.065-139.262 151.11l-1.154 2.234c71.040 17.728 139.008 49.024 197.888 96.256 14.912 12.032 28.672 25.152 41.984 38.528 28.499-54.22 45.224-118.469 45.224-186.624 0-20.115-1.457-39.891-4.271-59.226l0.263 2.202zM414.144 30.4c-44.559 17.447-82.889 41.24-116.031 70.735l0.383-0.335-0.32 0.128c-16.817 15.017-31.996 31.088-45.728 48.36l-0.608 0.792c25.28-3.776 50.624-5.76 76.032-5.76 17.792 0 35.392 2.624 52.992 4.352 27.093-52.858 60.617-98.109 100.333-137.071l0.083-0.081c-25.468 4.689-47.886 11.183-69.325 19.622l2.509-0.87c-0.064 0-0.192 0-0.32 0.128zM315.712 681.728c9.92 7.808 20.288 15.232 30.976 22.016 0.512 0.256 1.024 0.512 1.472 0.896 10.752 6.72 21.888 12.992 33.344 18.688l1.024 0.512c33.454 16.833 72.302 29.186 113.262 34.968l2.002 0.232c-50.281-45.012-91.32-99.169-120.712-160.006l-1.336-3.066c-52.032 7.232-95.552 6.72-141.248-1.6 22.080 32.896 49.152 62.080 80.064 86.592l1.152 0.768zM353.984 214.144c-7.391-0.435-16.034-0.683-24.736-0.683-45.159 0-88.757 6.681-129.861 19.108l3.173-0.824c-20.196 44.736-31.963 96.988-31.963 151.988 0 24.399 2.316 48.257 6.739 71.366l-0.376-2.363c4.707 24.175 10.834 45.242 18.62 65.486l-0.892-2.638c2.176 0.128 4.352-0.192 6.592 0.32 31.461 8.363 67.58 13.165 104.821 13.165 15.264 0 30.34-0.807 45.187-2.38l-1.849 0.159c-14.284-44.645-22.641-96.017-22.911-149.302l-0.001-0.138c0-56.384 10.048-111.296 27.456-163.264zM417.984 515.072c97.036-25.636 178.375-81.808 235.241-157.43l0.791-1.098c-14.656-16-30.144-31.36-47.488-45.312-51.244-41.199-112.997-71.561-180.533-86.553l-2.955-0.551c-17.343 45.591-27.426 98.308-27.52 153.369v0.039c0 47.808 8.384 93.824 22.464 137.536zM630.784 484.096c-52.206 43.086-114.187 76.481-181.947 96.361l-3.653 0.919c38.32 73.546 94.192 133.317 162.242 175.221l1.918 1.099c61.132-9.932 115.484-33.268 161.856-66.928l-1.088 0.752c7.36-99.52-17.152-196.096-70.656-277.184-20.901 25.733-43.402 48.579-67.895 69.126l-0.777 0.634zM805.376 105.28c0.013 1.312 0.020 2.862 0.020 4.415 0 89.013-24.356 172.337-66.767 243.672l1.21-2.199 2.816 3.136c60.16 81.6 95.168 171.2 99.968 269.696 29.621-35.993 53.011-78.405 67.743-124.68l0.737-2.68 0.384 0.128c10.861-33.612 17.123-72.284 17.123-112.418 0-110.415-47.392-209.762-122.944-278.808l-0.291-0.262z" />
<glyph unicode="&#xe60c;" glyph-name="channel" d="M704.469 2.531c-10.875 0-21.375 6-26.719 16.313-7.5 14.719-1.687 32.813 13.031 40.313 132.562 67.689 214.969 202.219 214.969 351.001 0.094 217.219-176.625 393.844-393.75 393.844s-393.844-176.625-393.844-393.844c0-148.781 82.406-283.313 214.969-351.001 14.719-7.5 20.625-25.594 13.031-40.313-7.5-14.719-25.594-20.625-40.313-13.031-73.313 37.5-135.188 94.219-178.969 164.156-44.813 71.906-68.625 154.969-68.625 240.187 0 61.219 12 120.656 35.625 176.625 22.875 54 55.594 102.563 97.219 144.281 41.719 41.719 90.281 74.437 144.281 97.219 55.969 23.719 115.406 35.719 176.625 35.719s120.656-12 176.625-35.719c54-22.781 102.563-55.5 144.188-97.219 41.625-41.625 74.343-90.188 97.219-144.281 23.625-55.969 35.625-115.406 35.625-176.625 0-85.219-23.719-168.281-68.719-240.281-43.687-69.937-105.563-126.75-178.969-164.156-4.219-2.156-8.906-3.188-13.5-3.188zM375.875 100.219c-5.063 0-10.125 1.313-14.906 3.938-45.657 26.156-84 63.938-110.906 109.313-27.657 46.687-42.281 100.219-42.281 154.781 0 81.281 31.594 157.594 89.063 215.063s133.781 89.063 215.063 89.063c81.281 0 157.594-31.594 215.063-89.062s89.063-133.875 89.063-215.063c0-54.563-14.625-108.094-42.281-154.781-26.813-45.281-65.156-83.156-110.906-109.313-14.345-8.25-32.719-3.281-40.875 11.156-8.25 14.343-3.281 32.719 11.156 40.875 75.844 43.5 123.001 124.781 123.001 212.063 0 134.625-109.5 244.219-244.219 244.219-134.625 0-244.219-109.594-244.219-244.219 0-87.375 47.156-168.656 123.001-212.063 14.345-8.25 19.312-26.531 11.156-40.875-5.438-9.75-15.563-15.094-25.969-15.094zM634.438-96h-213.469c-9.094 0-17.719 4.125-23.438 11.25s-7.875 16.406-5.812 25.313l92.719 414.469c3.655 16.125 19.594 26.345 35.813 22.688 16.125-3.657 26.343-19.687 22.688-35.813l-84.563-377.906h176.063c16.594 0 30-13.406 30-30-0.094-16.594-13.5-30-30-30z" />
<glyph unicode="&#xe60f;" glyph-name="alarm" d="M983.991 164.571h-106.277v365.714c0 201.947-163.767 365.714-365.714 365.714s-365.714-163.767-365.714-365.714v-365.714h-106.277c-22.089 0-40.009-16.384-40.009-36.571s17.92-36.571 40.009-36.571h943.982c22.089 0 40.009 16.384 40.009 36.571s-17.92 36.571-40.009 36.571zM219.429 164.571v365.714c0 161.573 130.999 292.571 292.571 292.571s292.571-130.999 292.571-292.571v-365.714h-585.143zM658.286 18.651c0-80.823-65.463-146.286-146.286-146.286v0c-80.823 0-146.286 65.463-146.286 146.286" />
<glyph unicode="&#xe610;" glyph-name="back" d="M691.2 550.4h-211.2v179.2l-409.6-204.8 409.6-204.8v166.4h211.2c115.2 0 204.8-83.2 204.8-192s-83.2-192-198.4-192h-396.8c-19.2 0-32-12.8-32-32s12.8-32 32-32h396.8c147.2 0 262.4 115.2 262.4 256s-121.6 256-268.8 256z" />
<glyph unicode="&#xe615;" glyph-name="phone" d="M706.513 802.387h-389.016c-48.336 0-87.664-39.329-87.664-87.664v-661.453c0-48.336 39.329-87.655 87.664-87.655h389.016c48.336 0 87.655 39.319 87.655 87.655v661.453c0 48.336-39.319 87.664-87.655 87.664zM317.497 744.007h389.016c16.144 0 29.276-13.141 29.276-29.285v-457.012h-447.577v457.012c0 16.144 13.141 29.285 29.285 29.285zM706.513 23.994h-389.016c-16.144 0-29.285 13.132-29.285 29.276v165.523h447.576v-165.523c0-16.144-13.131-29.276-29.275-29.276zM463.35 129.397c0-26.868 21.781-48.65 48.65-48.65s48.65 21.781 48.65 48.65v0c0 26.868-21.781 48.65-48.65 48.65s-48.65-21.781-48.65-48.65v0z" />
<glyph unicode="&#xe617;" glyph-name="remove" d="M512 431.734l-174.946 174.986c-6.108 6.108-14.546 9.886-23.867 9.886-18.641 0-33.753-15.112-33.753-33.753 0-9.321 3.778-17.759 9.886-23.867l174.907-174.986-174.986-174.946c-6.108-6.108-9.886-14.546-9.886-23.867 0-18.641 15.112-33.753 33.753-33.753 9.321 0 17.759 3.778 23.867 9.886l175.025 174.907 174.946-174.986c6.108-6.108 14.546-9.886 23.867-9.886 18.641 0 33.753 15.112 33.753 33.753 0 9.321-3.778 17.759-9.886 23.867l-174.907 175.025 174.986 174.946c6.108 6.108 9.886 14.546 9.886 23.867 0 18.641-15.112 33.753-33.753 33.753-9.321 0-17.759-3.778-23.867-9.886l-175.025-174.907z" />
<glyph unicode="&#xe619;" glyph-name="doc" d="M316.132 327.756h391.736c15.465 0 27.981 12.514 27.981 27.981s-12.515 27.981-27.981 27.981h-391.736c-15.465 0-27.981-12.514-27.981-27.981s12.515-27.981 27.981-27.981zM316.132 215.832h391.736c15.465 0 27.981 12.515 27.981 27.98s-12.515 27.981-27.981 27.981h-391.736c-15.465 0-27.981-12.514-27.981-27.981 0-15.465 12.515-27.98 27.981-27.98zM316.132 103.907h391.736c15.465 0 27.981 12.515 27.981 27.982 0 15.465-12.515 27.981-27.981 27.981h-391.736c-15.465 0-27.981-12.515-27.981-27.981s12.515-27.982 27.981-27.982zM316.132 439.68h167.887c15.466 0 27.981 12.515 27.981 27.981s-12.514 27.981-27.981 27.981h-167.887c-15.465 0-27.981-12.515-27.981-27.981s12.515-27.981 27.981-27.981zM903.735 579.587c0 7.76-3.143 14.755-8.225 19.811l-223.794 223.794c-5.055 5.082-12.050 8.225-19.811 8.225h-475.68c-30.933 0-55.962-25.030-55.962-55.963v-783.472c0-30.934 25.029-55.963 55.962-55.963h671.548c30.934 0 55.963 25.030 55.963 55.963v587.604zM679.885 735.887l128.322-128.32h-128.322v128.32zM819.792-8.017h-615.584c-15.466 0-27.982 12.514-27.982 27.981v727.509c0 15.466 12.515 27.981 27.982 27.981h419.716v-195.868c0-15.466 12.515-27.981 27.981-27.981h195.868v-531.641c0-15.466-12.515-27.981-27.981-27.981z" />
<glyph unicode="&#xe61b;" glyph-name="add" d="M856.508 433.229h-295.278v295.281c0 27.186-22.042 49.229-49.229 49.229s-49.229-22.043-49.229-49.229v-295.281h-295.279c-27.188 0-49.229-22.043-49.229-49.229 0-27.189 22.041-49.229 49.229-49.229h295.279v-295.281c0-27.185 22.043-49.229 49.229-49.229s49.229 22.044 49.229 49.229v295.281h295.278c27.19 0 49.229 22.040 49.229 49.229 0 27.186-22.039 49.229-49.229 49.229z" />
<glyph unicode="&#xe627;" glyph-name="user" d="M986.372-50.566c2.218-4.135 3.743-8.617 3.743-13.59 0-16.545-13.691-29.94-30.533-29.94s-30.531 13.395-30.531 29.94h-0.787c-41.958 188.313-212.686 329.346-417.198 329.346-204.514 0-375.291-141.033-417.197-329.346h-0.787c0-16.545-13.691-29.94-30.533-29.94s-30.53 13.395-30.53 29.94c0 4.973 1.523 9.454 3.742 13.59 37.77 167.777 163.884 303.052 329.247 353.771-94.402 50.919-159.157 148.225-159.157 261.389 0 165.363 136.653 299.406 305.216 299.406s305.213-134.042 305.213-299.406c0-113.164-64.754-210.469-159.156-261.389 165.362-50.72 291.428-185.995 329.248-353.771v0zM755.218 564.594c0 132.27-109.322 239.524-244.151 239.524-134.882 0-244.154-107.254-244.154-239.524s109.322-239.524 244.154-239.524c134.83 0 244.151 107.254 244.151 239.524v0z" />
<glyph unicode="&#xe628;" glyph-name="check-people" horiz-adv-x="1079" d="M522.11 366.335c-137.354 0.147-248.664 111.444-248.833 248.78v0.016c0.037 137.249 111.621 248.87 248.833 248.87s248.833-111.621 248.833-248.833c-0.147-137.367-111.466-248.685-248.818-248.833h-0.014zM522.11 808.449c-106.696-0.126-193.155-86.586-193.281-193.269v-0.012c0-106.547 86.697-193.244 193.281-193.244s193.281 86.697 193.281 193.244c-0.126 106.696-86.586 193.155-193.269 193.281h-0.012zM59.776-96c-15.34 0-27.776 12.436-27.776 27.776v0c0 270.238 219.872 490.11 490.11 490.11 123.546 0 241.5-46.108 332.271-129.805 5.499-5.091 8.93-12.348 8.93-20.406 0-15.343-12.438-27.78-27.78-27.78-7.284 0-13.914 2.804-18.869 7.391l0.018-0.017c-76.995 71.338-180.426 115.103-294.079 115.103-0.173 0-0.346 0-0.518 0h0.027c-239.611-0.037-434.559-194.985-434.559-434.596 0-15.34-12.436-27.776-27.776-27.776v0zM743.167-57.225c-0.005 0-0.010 0-0.016 0-7.546 0-14.39 3.009-19.396 7.894l0.006-0.006-143.507 140.211c-5.17 5.053-8.375 12.096-8.375 19.887 0 15.353 12.446 27.8 27.8 27.8 7.562 0 14.418-3.019 19.43-7.917l-0.005 0.005 123.879-121.028 253.351 253.351c5.028 5.028 11.974 8.138 19.647 8.138 15.345 0 27.785-12.44 27.785-27.785 0-7.672-3.11-14.619-8.138-19.647l-272.757-272.757c-5.028-5.034-11.976-8.148-19.653-8.148-0.017 0-0.035 0-0.052 0h0.003z" />
<glyph unicode="&#xe629;" glyph-name="warn" d="M512 864c-264 0-480-216-480-480s216-480 480-480 480 216 480 480-216 480-480 480zM512-27.429c-226.286 0-411.429 185.143-411.429 411.429s185.143 411.429 411.429 411.429 411.429-185.143 411.429-411.429-185.143-411.429-411.429-411.429zM546.286 246.857h-51.429c-10.286 0-17.143-6.857-17.143-17.143v-51.429c0-10.286 6.857-17.143 17.143-17.143h51.429c10.286 0 17.143 6.857 17.143 17.143v51.429c0 10.286-6.857 17.143-17.143 17.143zM546.286 589.714h-51.429c-10.286 0-17.143-6.857-17.143-17.143v-222.857c0-10.286 6.857-17.143 17.143-17.143h51.429c10.286 0 17.143 6.857 17.143 17.143v222.857c0 10.286-6.857 17.143-17.143 17.143z" />
<glyph unicode="&#xe62c;" glyph-name="safe" d="M512-80.009q-52.258 0-121.617 36.796t-131.209 93.867-104.55 134.417-42.667 148.787v401.067l39.458 1.058q8.533 0 27.75 1.604t66.15 11.196 87.484 25.6q97.075 39.458 155.75 82.125l23.484 17.067 23.484-17.067q58.675-42.667 155.75-82.125 40.55-16.009 87.484-25.6t66.15-11.196 27.75-1.604l39.458-1.058v-401.067q0-71.475-42.667-148.787t-104.55-134.417-131.209-93.867-121.617-36.796zM193.058 658.125v-324.267q0-55.467 36.796-117.35t87.996-108.271 105.062-77.346 89.054-30.925 89.054 30.925 105.062 77.346 87.996 108.271 36.796 117.35v324.267q-90.658 9.591-170.667 41.609-80.009 33.075-148.275 75.742-67.209-42.667-148.275-75.742-80.009-32.017-170.667-41.609zM490.667 183.467l-169.609 144.009 52.258 60.791 108.817-91.75 206.95 236.817 60.791-53.35z" />
<glyph unicode="&#xe62d;" glyph-name="info" d="M758.080 721.28c51.072 0 92.352-41.344 92.352-92.544v-553.472c-0.182-51.114-41.66-92.48-92.799-92.48 0 0 0 0-0.001 0h-491.264c-51.392 0-92.8 41.28-92.8 92.48v553.472c0 51.2 41.152 92.48 92.16 92.48h59.84v61.568h-59.84c0 0 0 0 0 0-84.902 0-153.728-68.826-153.728-153.728 0-0.113 0-0.225 0-0.338v0.018-553.472c0 0 0 0 0 0 0-85.078 68.97-154.048 154.048-154.048 0.112 0 0.225 0 0.337 0h491.247c0.038 0 0.083 0 0.128 0 85.117 0 154.131 68.946 154.24 154.038v553.482c0 0.057 0 0.125 0 0.192 0 84.972-68.884 153.856-153.856 153.856-0.023 0-0.045 0-0.068 0h-55.548v-61.568h55.552zM442.176 746.688h139.584c5.638 0.069 10.181 4.656 10.181 10.303 0 0.113-0.002 0.225-0.005 0.337v-0.016c0.064 6.208-4.416 10.688-10.112 10.688h-139.584c-5.639-0.068-10.183-4.655-10.183-10.303 0-0.135 0.003-0.27 0.008-0.404l-0.001 0.019c0-6.144 4.48-10.624 10.176-10.624zM442.176 832h139.584c40.96 0 74.176-33.152 74.176-74.688 0-41.216-33.024-74.624-74.176-74.624h-139.52c0 0-0.001 0-0.001 0-41.002 0-74.24 33.238-74.24 74.24 0 0.135 0 0.27 0.001 0.405v-0.021c0 41.28 33.024 74.688 74.176 74.688zM272 483.584h480v-49.792h-480v49.792zM272 334.208h480v-49.792h-480v49.792zM272 184.896h288v-49.792h-288v49.792z" />
<glyph unicode="&#xe631;" glyph-name="idea" d="M354.714 62.874h321.126c17.476 0 32.768-13.107 32.768-32.768 0-17.476-13.107-32.768-32.768-32.768h-321.126c-17.476 0-32.768 13.107-32.768 32.768s13.107 32.768 32.768 32.768M649.626-50.722h-268.698c-4.369 0-6.554-6.554-2.185-10.923l98.304-50.244c10.923-4.369 24.030-8.738 39.322-8.738 13.107 0 24.030 4.369 37.137 8.738l98.304 50.244c4.369 4.369 2.185 10.923-2.185 10.923zM509.815 659.251c39.322 0 74.274-15.292 109.227-48.060 34.953-30.583 50.244-69.905 50.244-117.965 0-15.292 13.107-32.768 32.768-32.768 17.476 0 32.768 15.292 32.768 32.768 0 69.905-21.845 124.518-67.721 166.025s-98.304 61.167-157.286 61.167c-17.476 0-32.768-13.107-32.768-32.768 2.185-13.107 15.292-28.399 32.768-28.399M658.364 117.487h-286.174c-32.768 0-58.982 24.030-63.351 56.798-4.369 6.554-15.292 21.845-19.661 26.214-93.935 72.090-148.548 181.316-148.548 299.281 0 207.531 168.209 375.74 375.74 375.74s375.74-168.209 375.74-375.74c0-120.149-54.613-229.376-150.733-301.466-4.369-4.369-15.292-17.476-19.661-26.214-4.369-28.399-30.583-54.613-63.351-54.613zM380.928 191.761h268.698c6.554 26.214 32.768 56.798 45.875 67.721 76.459 56.798 120.149 146.364 120.149 242.483 0 166.025-135.441 301.466-301.466 301.466s-301.466-135.441-301.466-301.466c0-96.119 43.691-183.501 120.149-240.299 13.107-10.923 41.506-41.506 48.060-69.905z" />
<glyph unicode="&#xe63f;" glyph-name="config" d="M888.793 255.138c69.257 0 125.637 56.318 125.637 125.637 0 69.261-56.377 125.637-125.637 125.637h-21.776c-5.332 15.075-10.448 27.189-16.15 38.966l0.995-2.278 15.337 15.368c23.681 23.642 36.682 55.177 36.682 88.828s-13.001 65.182-36.68 88.83c-23.622 23.679-55.21 36.719-88.83 36.719-33.622 0-65.149-13.040-88.83-36.719l-15.335-15.37c-9.528 4.728-21.642 9.844-34.059 14.327l-2.627 0.828v21.778c0 69.261-56.373 125.637-125.639 125.637-69.323 0-125.635-56.373-125.635-125.637v-21.776c-15.163-5.362-27.297-10.468-39.104-16.146l2.357 1.022-15.274 15.34c-23.683 23.679-55.212 36.719-88.893 36.719-33.618 0-65.153-13.040-88.832-36.719-23.615-23.648-36.62-55.181-36.62-88.832s13.005-65.184 36.62-88.828l15.401-15.34c-4.788-9.617-9.905-21.743-14.363-34.183l-0.793-2.534h-21.778c-69.323 0-125.637-56.375-125.637-125.637 0-69.319 56.314-125.637 125.637-125.637h21.776c5.252-14.961 10.369-27.074 16.102-38.832l-0.947 2.15-15.401-15.34c-23.615-23.679-36.62-55.212-36.62-88.83 0-33.677 13.005-65.212 36.62-88.826 23.679-23.683 55.212-36.686 88.832-36.686 33.679 0 65.208 13.003 88.893 36.686l15.274 15.333c9.408-4.635 21.542-9.748 33.962-14.264l2.786-0.885v-21.778c0-69.329 56.314-125.641 125.635-125.641 69.263 0 125.639 56.312 125.639 125.641v21.778c15.137 5.374 27.25 10.487 39.036 16.171l-2.35-1.022 15.335-15.333c23.681-23.683 55.208-36.686 88.83-36.686 33.62 0 65.208 13.003 88.83 36.686 23.681 23.613 36.682 55.149 36.682 88.826 0 33.618-13.003 65.153-36.682 88.83l-15.337 15.34c4.696 9.482 9.812 21.594 14.307 34.002l0.848 2.679h21.776zM822.782 158.702c11.837-11.835 18.282-27.607 18.282-44.417 0-16.867-6.443-32.637-18.282-44.417-23.613-23.615-65.212-23.615-88.83 0l-48.339 48.347-20.734-11.598c-20.92-11.721-43.559-21.043-67.359-27.787l-22.823-6.502v-68.465c0-34.662-28.221-62.822-62.82-62.822-34.658 0-62.816 28.16-62.816 62.822v68.465l-22.882 6.502c-23.802 6.744-46.44 16.069-67.299 27.787l-20.732 11.598-48.341-48.347c-23.679-23.615-65.274-23.615-88.832 0-11.842 11.78-18.278 27.548-18.278 44.417 0 16.808 6.439 32.58 18.278 44.417l48.341 48.341-11.592 20.734c-11.721 20.859-21.043 43.495-27.793 67.359l-6.504 22.823h-68.458c-34.658 0-62.818 28.16-62.818 62.818 0 34.664 28.16 62.822 62.818 62.822h68.461l6.504 22.847c6.75 23.839 16.073 46.471 27.793 67.33l11.592 20.736-48.341 48.368c-11.842 11.811-18.278 27.548-18.278 44.415 0 16.837 6.439 32.61 18.278 44.415 23.556 23.589 65.153 23.589 88.832 0l48.341-48.372 20.732 11.598c20.861 11.684 43.497 21.008 67.299 27.787l22.882 6.468v68.497c0 34.658 28.16 62.818 62.816 62.818 34.599 0 62.82-28.16 62.82-62.818v-68.497l22.823-6.468c23.8-6.75 46.438-16.073 67.359-27.787l20.734-11.598 48.339 48.372c23.618 23.589 65.217 23.589 88.83 0 11.837-11.805 18.282-27.578 18.282-44.415 0-16.867-6.443-32.604-18.282-44.415l-48.339-48.368 11.592-20.736c11.721-20.982 21.043-43.616 27.791-67.33l6.439-22.847h68.528c34.601 0 62.818-28.158 62.818-62.822 0-34.658-28.217-62.818-62.818-62.818h-68.528l-6.439-22.823c-6.748-23.74-16.073-46.379-27.791-67.359l-11.592-20.734 48.337-48.341zM511.879 569.233c-103.92 0-188.453-84.539-188.453-188.459s84.533-188.453 188.453-188.453 188.455 84.531 188.455 188.453c0 103.92-84.533 188.459-188.455 188.459zM511.879 255.138c-69.323 0-125.635 56.318-125.635 125.637 0 69.261 56.314 125.637 125.635 125.637 69.263 0 125.639-56.375 125.639-125.637 0-69.319-56.373-125.637-125.639-125.637z" />
<glyph unicode="&#xe667;" glyph-name="arrow-down" d="M511.946 244.469l382.227 367.864c13.908 13.814 36.413 13.814 50.418 0 13.908-13.811 13.908-36.123 0-49.904l-407.371-403.342c-13.971-13.814-36.511-13.814-50.418 0l-407.371 403.342c-13.971 13.814-13.907 36.123 0 49.904 13.844 13.814 36.413 13.814 50.418 0l382.096-367.864zM511.946 244.469" />
<glyph unicode="&#xe668;" glyph-name="arrow-up" d="M512.054 523.531l-382.227-367.864c-13.907-13.814-36.413-13.814-50.418 0-13.908 13.811-13.908 36.123 0 49.903l407.371 403.342c13.971 13.814 36.511 13.814 50.418 0l407.371-403.342c13.971-13.814 13.907-36.123 0-49.903-13.844-13.814-36.413-13.814-50.418 0l-382.096 367.864z" />
<glyph unicode="&#xe674;" glyph-name="password" d="M857.001-96h-690c-27.42 0-60 29.161-60 60v510c0 22.201 30.030 60 60 60 14.37 0 60 0 60 0v90c0 140.1 120.72 238.62 270 240 146.82-1.38 270-97.59 270-240v-60h-60v60c0 116.85-88.53 179.34-210 180-124.32-0.72-210-65.070-210-180v-90h480c0 0 71.79 0 90 0 32.88 0 60-26.61 60-60v-510c0-29.7-32.58-60-60-60zM857.001 474h-690v-510h690v510zM527.001 414c82.83 0 150-67.17 150-150 0-72.57-51.54-133.081-120-146.97v-93.030c0-16.56-13.44-30-30-30s-30 13.44-30 30v93.030c-68.46 13.89-120 74.4-120 146.97 0 82.83 67.17 150 150 150zM527.001 174c49.71 0 90 40.29 90 90s-40.29 90-90 90c-49.71 0-90-40.29-90-90s40.29-90 90-90z" />
<glyph unicode="&#xe681;" glyph-name="fresh" d="M1009.216 366.528l-119.168-118.848c-6.464-6.464-14.848-9.344-23.296-9.152-8.448-0.192-16.96 2.688-23.36 9.152l-149.696 118.848c-12.352 12.48-12.352 32.576 0 44.992 12.416 12.416 32.704 12.416 44.992 0l92.544-73.472c3.072 17.216 4.992 34.816 4.992 52.864 0 167.872-136.32 304-304.64 304-97.856 0-184.832-46.336-240.512-118.016l-47.552 37.952c66.88 85.696 170.88 140.864 288.064 140.864 201.856 0 365.504-163.392 365.504-364.864 0-17.152-1.472-33.728-3.904-50.24l70.912 70.848c12.416 12.416 32.64 12.416 45.056 0s12.416-32.448 0.064-44.928zM339.072 370.24c-12.416-12.352-32.64-12.352-44.992 0l-63.744 63.616c-1.92-14.080-3.328-28.352-3.328-43.008 0-168 136.384-304 304.576-304 91.136 0 172.672 40.064 228.416 103.296l47.68-38.016c-67.072-77.184-165.696-126.208-276.096-126.208-201.856 0-365.44 163.328-365.44 364.864 0 21.184 2.56 41.6 6.208 61.696l-103.68-82.368c-12.352-12.352-32.576-12.352-44.928 0-12.416 12.416-12.416 32.512 0 44.928l149.568 118.976c6.464 6.336 14.912 9.344 23.36 9.088 8.384 0.256 16.896-2.752 23.36-9.088l119.104-118.976c12.288-12.288 12.288-32.384-0.064-44.8z" />
<glyph unicode="&#xe691;" glyph-name="home" horiz-adv-x="1186" d="M1080.705 449.378l-488.148 467.052c-4.41-3.768-6.019-5.155-6.538-5.609h-0.002c-39.819-34.133-52.784-51.49-52.784-51.49l-431.159-420.432c-16.301-15.879-16.632-41.97-0.729-58.241 15.878-16.301 41.926-16.633 58.247-0.721l433.213 422.44 429.887-411.372c16.425-15.697 42.736-15.377 58.757 0.721 15.995 16.105 15.693 41.929-0.746 57.65zM914.471-110.229v0zM930.47 289.015c-22.525 0-40.784-18.095-41.024-40.591h-0.591v-281.805h-589.221v281.805h-0.614c-0.394 22.36-18.582 40.292-41.034 40.292-22.429 0-40.624-17.933-41.018-40.292h-0.532v-307.426c0-28.274 22.934-51.226 51.223-51.226h646.813c28.29 0 57.586 22.952 57.586 51.226v307.426h-0.545c-0.24 22.495-18.492 40.591-41.043 40.591z" />
<glyph unicode="&#xe6aa;" glyph-name="list" horiz-adv-x="1040" d="M417.282 711.554h570.799c19.632 0 35.551 15.984 35.551 35.725 0 19.732-15.919 35.724-35.551 35.724h-570.799c-19.63 0-35.55-15.99-35.55-35.724 0-19.743 15.92-35.725 35.55-35.725zM148.665 167.806c-74.163 0-134.294-60.429-134.294-134.957 0-74.53 60.13-134.943 134.294-134.943 74.18 0 134.323 60.414 134.323 134.943-0.001 74.527-60.143 134.957-134.323 134.957zM148.665-30.651c-34.842 0-63.19 28.48-63.19 63.499 0 35.023 28.349 63.505 63.19 63.505 34.857 0 63.221-28.484 63.221-63.505 0-35.019-28.363-63.499-63.221-63.499zM148.665 525.009c-74.163 0-134.294-60.414-134.294-134.945 0-74.545 60.13-134.956 134.294-134.956 74.18 0 134.323 60.414 134.323 134.958-0.001 74.53-60.143 134.943-134.323 134.943zM148.665 326.553c-34.842 0-63.19 28.49-63.19 63.51 0 35.010 28.349 63.5 63.19 63.5 34.857 0 63.221-28.49 63.221-63.5 0-35.020-28.363-63.51-63.221-63.51zM308.399 863.641c-12.917 11.407-33.903 6.409-46.82-4.997l-127.777-150.216-76.967 77.668c-12.917 11.403-33.902 16.398-46.821 4.996-12.917-11.403-12.917-35.116 0-46.523l100.378-98.431c12.917-11.403 33.902-11.403 46.821 0h0.002l151.184 170.982c12.917 11.403 12.916 35.116 0 46.521zM988.081 425.774h-570.799c-19.63 0-35.55-15.982-35.55-35.709 0-19.732 15.92-35.724 35.55-35.724h570.799c19.632 0 35.551 15.99 35.551 35.724 0 19.727-15.92 35.709-35.551 35.709zM988.081 68.57h-570.799c-19.63 0-35.55-15.99-35.55-35.724 0-19.724 15.92-35.724 35.55-35.724h570.799c19.632 0 35.551 15.999 35.551 35.724 0 19.733-15.92 35.724-35.551 35.724z" />
<glyph unicode="&#xe6ab;" glyph-name="dustbin" d="M296.999 896h231.54c41.578-6.801 58.89-43.897 64.918-81.456 69.4 0 138.955 0.155 208.355 0v-33.85c-20.712-0.155-41.424-0.155-62.136-0.155-15.92-213.919-29.058-428.302-46.37-642.222 0.927-32.459-27.513-50.543-53.789-61.517h-443.914c-28.595 8.81-58.735 27.667-57.808 61.517-17.621 213.919-30.604 428.148-46.679 642.222-20.712 0-41.424 0-62.136 0.155v33.85c69.4 0.155 138.955 0 208.355 0 6.028 36.014 21.948 70.637 59.662 81.456M272.577 814.853c95.213-0.464 190.425-0.309 285.483 0-3.71 19.475-9.892 47.915-36.014 45.906-71.255 2.318-142.974 2.628-214.229-0.155-25.813 1.855-31.068-26.894-35.241-45.752M125.43 780.694c15.766-213.765 28.595-427.839 46.215-641.449-1.855-22.721 25.967-27.976 42.969-27.976 129.217-1.391 258.434 0.155 387.497-0.618 19.939 0.773 56.107-1.237 56.88 27.049 18.239 214.074 30.759 428.612 46.988 642.84-193.517 0.155-387.033 0-580.55 0.155zM247.228 690.582c8.347 0.464 25.194 1.237 33.541 1.7 12.365-163.222 25.503-326.289 37.869-489.356-8.501-0.464-25.349-1.391-33.695-1.855-12.211 163.222-25.658 326.289-37.714 489.511zM550.178 692.282c8.347-0.464 25.040-1.237 33.386-1.7-11.902-163.222-25.503-326.289-37.56-489.511-8.501 0.464-25.349 1.237-33.695 1.7 12.211 163.222 25.503 326.289 37.869 489.511zM398.085 691.045c8.656 0 25.967 0 34.468 0 0.155-163.531 0.155-327.062 0.155-490.593-8.656 0-25.967 0-34.623 0 0 163.531 0 327.062 0 490.593z" />
<glyph unicode="&#xe6d0;" glyph-name="analyze" d="M834.688 412.672h-112.32l-23.616 93.248c-3.962 14.698-17.047 25.385-32.673 25.664h-0.031c-15.235-0.009-28.171-9.838-32.824-23.5l-0.072-0.244-69.888-219.776-73.216 317.76c0.725 2.625 1.141 5.639 1.141 8.751 0 18.84-15.272 34.112-34.112 34.112s-34.112-15.272-34.112-34.112c0-2.671 0.307-5.271 0.888-7.765l-0.045 0.23-60.032-223.104-4.096 11.264c-4.913 13.221-17.401 22.479-32.058 22.528h-138.118c-18.193-0.813-32.635-15.76-32.635-34.080s14.442-33.267 32.562-34.077l0.073-0.003h114.112l32.768-90.688c5.025-13.275 17.632-22.543 32.403-22.543 0.353 0 0.705 0.005 1.056 0.016l-0.051-0.001h0.064c15.092 0.59 27.609 10.955 31.432 24.914l0.056 0.238 52.8 195.968 70.656-306.112c3.514-15.277 16.996-26.496 33.098-26.496 0.042 0 0.083 0 0.125 0h-0.006c0.046 0 0.1 0 0.154 0 15.1 0 27.895 9.867 32.291 23.504l0.067 0.24 71.488 224.704 0.768-3.072c3.84-15.168 17.408-25.728 33.088-25.728h138.88c0.431-0.020 0.937-0.031 1.445-0.031 18.84 0 34.112 15.272 34.112 34.112s-15.272 34.112-34.112 34.112c-0.531 0-1.059-0.012-1.583-0.036l0.074 0.003zM856.448 728.448c-87.632 88.007-208.895 142.467-342.878 142.467-0.552 0-1.104-0.001-1.655-0.003h0.085c-0.466 0.002-1.018 0.003-1.57 0.003-133.983 0-255.246-54.459-342.861-142.45l-0.017-0.017c-88.008-87.661-142.466-208.95-142.466-342.957 0-0.524 0.001-1.048 0.002-1.571v0.081c-0.002-0.466-0.003-1.018-0.003-1.57 0-133.983 54.459-255.246 142.45-342.861l0.017-0.017c91.84-91.84 214.144-142.464 344.448-142.464s252.608 50.624 344.448 142.464c88.045 87.639 142.53 208.927 142.53 342.941 0 0.53-0.001 1.059-0.003 1.588v-0.082c0.001 0.384 0.002 0.839 0.002 1.294 0 134.081-54.482 255.438-142.515 343.139l-0.015 0.015zM512-25.856c-0.398-0.001-0.869-0.002-1.34-0.002-112.791 0-214.874 45.848-288.63 119.923l-0.015 0.015c-74.051 73.734-119.874 175.766-119.874 288.501 0 0.499 0.001 0.998 0.003 1.496v-0.077c0 109.632 42.624 212.608 119.936 289.92 77.312 77.376 180.288 119.936 289.92 119.936s212.608-42.624 289.92-119.936c77.376-77.312 119.936-180.288 119.936-289.92s-42.56-212.608-119.936-289.92c-73.73-74.089-175.78-119.938-288.538-119.938-0.486 0-0.971 0.001-1.457 0.003h0.075z" />
<glyph unicode="&#xe6d1;" glyph-name="rate-down" horiz-adv-x="1193" d="M934.155 612.984l-184.92 164.462c-41.486 36.912-109.123 38.107-152.227 2.251l-172.267-143.16c-8.485-6.482-19.241-10.385-30.908-10.385-11.911 0-22.872 4.068-31.569 10.892l0.111-0.084-182.602 155.602c-6.041 5.035-13.884 8.091-22.441 8.091-19.421 0-35.165-15.744-35.165-35.165 0-10.516 4.616-19.954 11.933-26.398l0.039-0.033 182.602-155.602c44.342-36.485 108.192-36.898 153-0.984l172.267 143.155c16.31 13.57 45 13.080 60.47-0.773l176.904-157.219h-126.912c-19.416 0-35.155-15.74-35.155-35.155s15.74-35.155 35.155-35.155v0h216.845c19.416 0 35.155 15.74 35.155 35.155v0 205.31c0 19.416-15.74 35.155-35.155 35.155s-35.155-15.74-35.155-35.155v0-124.805h-0.005zM301.064 34.546v347.765c0.005 0.211 0.007 0.459 0.007 0.708 0 19.012-15.214 34.47-34.132 34.864l-0.037 0.001-0.994 0.005c-18.845 0-35.155-15.96-35.155-35.578v-347.698h-105.614c-0.021 0-0.047 0-0.072 0-19.275 0-34.906-15.607-34.944-34.873v-0.287c0-18.845 15.682-35.155 35.016-35.155h914.342c0.021 0 0.047 0 0.072 0 19.275 0 34.906 15.607 34.944 34.873v0.287c0 18.845-15.682 35.155-35.016 35.155h-105.61v347.698c0.005 0.211 0.007 0.459 0.007 0.708 0 19.012-15.214 34.47-34.132 34.864l-0.037 0.001-0.994 0.005c-18.845 0-35.155-15.96-35.155-35.578v-347.698h-140.626v277.666c0.001 0.106 0.002 0.231 0.002 0.357 0 19.213-15.478 34.81-34.644 35.005h-0.018l-0.499 0.005c-18.845 0-35.155-15.821-35.155-35.366v-277.594h-140.621v418.363c0 20.107-15.749 35.227-35.155 35.227-18.845 0-35.155-15.749-35.155-35.155v-418.358h-140.626v-0.216z" />
<glyph unicode="&#xe6d2;" glyph-name="type-hybird" d="M719.9 249.4l-205.2 130.1v105.6c100.9-66.1 216.8-141.1 216.8-141.1s139.2-45.6 139.2 106.5c0 93-172.5 112.1-197.2 11.8l-69.6 47.3s24.2 101.5 162.4 106.5c138.2 4.9 192-94.6 190.9-199.6-1.2-104.7-136-198.3-237.3-167.1zM561 414c-4-19-23-33.7-47.6-33.7l-6.9 4.3-217.3 137.8s-118.2 32.8-128.4-83.4c-10.2-116.1 147.4-129.5 186.8-23.8l81.7-47.6s-65.1-119.1-198.5-119.1c-133.5 0-230.2 175.3-116.8 297.8 113.5 122.4 218.6 64.6 257 35.7 16.4-12.4 85.3-57.9 158.6-105.9l3.1-2.4c28.3-18.2 33.4-35.6 28.3-59.7zM434.1 149.7h212c16.7 0 30.3-13.6 30.3-30.3v-15.1c0-16.7-13.6-30.3-30.3-30.3h-212c-16.7 0-30.3 13.6-30.3 30.3v15.1c0 16.8 13.6 30.3 30.3 30.3z" />
<glyph unicode="&#xe6d6;" glyph-name="dhcp" d="M502.208 288.832h-329.024c-0.019 0-0.042 0-0.064 0-21.137 0-38.272-17.135-38.272-38.272 0-0.023 0-0.045 0-0.068v0.004-186.368c0-10.112 4.032-20.032 11.264-27.072 6.902-6.957 16.466-11.264 27.037-11.264 0.012 0 0.025 0 0.037 0h677.63c0.038 0 0.083 0 0.128 0 21.102 0 38.208 17.106 38.208 38.208 0 0.045 0 0.090 0 0.135v-0.007 186.368c0 0.019 0 0.042 0 0.064 0 21.137-17.135 38.272-38.272 38.272-0.023 0-0.045 0-0.068 0h0.004v0.128h-322.368M587.072 346.688v-0.32l263.744 1.28c53.605-0.036 97.051-43.482 97.088-97.084v-186.372c0-26.88-10.752-51.072-28.416-68.672-17.499-17.555-41.704-28.416-68.446-28.416-0.080 0-0.159 0-0.239 0h-677.62c-0.076 0-0.166 0-0.256 0-53.514 0-96.896 43.382-96.896 96.896 0 0.068 0 0.135 0 0.203v-0.010 186.368c0 0.057 0 0.125 0 0.192 0 53.514 43.382 96.896 96.896 96.896 0.090 0 0.18 0 0.27 0h-0.014l270.4-0.96M175.872 157.376c0 18.624 7.552 35.52 19.84 47.744 12.189 12.335 29.106 19.975 47.808 19.975s35.619-7.639 47.801-19.968l0.007-0.007c12.269-12.208 19.862-29.105 19.862-47.776s-7.593-35.568-19.859-47.773l-0.003-0.003c-12.176-12.255-29.040-19.84-47.675-19.84-0.047 0-0.094 0-0.141 0h0.007c-0.057 0-0.125 0-0.192 0-37.255 0-67.456 30.201-67.456 67.456 0 0.068 0 0.135 0 0.203v-0.010zM225.856 174.848c-4.608-4.608-7.296-10.944-7.296-17.472s2.56-12.864 7.296-17.472c4.474-4.476 10.645-7.257 17.465-7.296h0.007c13.677 0.036 24.759 11.096 24.832 24.761v0.007c-0.108 13.658-11.169 24.696-24.825 24.768h-0.007c-6.83-0.024-13.005-2.808-17.471-7.295l-0.001-0.001zM342.272 157.376c0 18.624 7.552 35.52 19.84 47.744 12.237 12.389 29.223 20.062 48.001 20.062 37.255 0 67.456-30.201 67.456-67.456 0-0.123 0-0.246-0.001-0.369v0.019c0-18.624-7.552-35.52-19.84-47.68l-0.128-0.128c-12.176-12.312-29.069-19.937-47.744-19.937s-35.568 7.625-47.738 19.931l-0.006 0.006c-12.252 12.098-19.841 28.894-19.841 47.462 0 0.122 0 0.243 0.001 0.365v-0.019zM392.192 174.848c-4.608-4.608-7.296-10.944-7.296-17.472s2.56-12.864 7.296-17.472c4.509-4.468 10.716-7.23 17.568-7.23s13.059 2.761 17.57 7.231l-0.002-0.002c4.455 4.479 7.209 10.654 7.209 17.472 0 13.684-11.093 24.777-24.777 24.777-6.866 0-13.080-2.793-17.567-7.304l-0.001-0.001zM92.352 708.928h-87.040v-295.488h84.096c46.208 0 84.608 13.888 114.112 41.344 29.632 27.584 44.672 64.576 44.672 109.952 0 43.712-15.104 79.104-44.8 105.216-29.44 25.856-66.816 38.976-111.040 38.976zM54.656 663.616h36.224c32 0 57.984-8.448 77.376-25.088 19.136-16.384 28.864-41.536 28.864-74.688 0-33.344-9.472-59.456-28.288-77.696-18.816-18.304-45.568-27.584-79.552-27.584h-34.624v205.056zM467.648 708.928h49.344v-295.488h-49.344v127.36h-130.24v-127.36h-49.344v295.488h49.344v-122.816h130.24v122.816zM777.6 701.632l3.84-1.664v-53.248l-9.472 5.248c-19.2 10.624-40.576 16-63.488 16-30.016 0-53.632-9.6-72.384-29.44-18.56-19.648-28.032-46.72-28.032-80.512 0-32 8.832-57.6 26.048-76.224 17.344-18.688 39.616-27.776 67.968-27.776 26.688 0 50.112 6.080 69.696 18.048l9.664 5.952v-50.304l-3.392-1.792c-21.632-11.392-49.024-17.216-81.344-17.216-42.176 0-76.352 13.632-101.76 40.64-25.216 26.816-37.952 62.656-37.952 106.496 0 47.040 14.4 85.504 42.688 114.368 28.352 28.864 64.832 43.52 108.352 43.52 27.776-0.064 51.136-4.096 69.568-12.096zM985.344 685.248c-17.984 15.744-43.328 23.68-75.328 23.68h-86.656v-295.488h49.28v105.664h30.144c30.72-0.704 57.408 7.744 78.272 25.92 21.056 18.432 31.744 42.688 31.744 72.256-0.064 29.184-9.216 52.032-27.456 67.968zM872.64 664h30.784c39.744 0 58.24-15.296 58.24-48.128 0-16.896-4.992-29.44-15.104-38.336-10.304-8.96-25.984-13.504-46.592-13.504h-27.392v99.968z" />
<glyph unicode="&#xe6d8;" glyph-name="diagnosis-search" d="M778 65.578c-78.224-66.914-180.592-107.636-292.47-107.636-0.211 0-0.422 0-0.634 0h0.033c-0.030 0-0.066 0-0.102 0-158.731 0-298.358 81.797-379.027 205.54l-1.064 1.74c-4.134 6.245-6.595 13.91-6.595 22.151 0 15.143 8.311 28.344 20.621 35.292l0.202 0.105c17.903 9.752 40.87 4.902 51.846-12.255 67.118-104.388 182.648-172.569 314.107-172.645h0.012c206.134 0.292 373.125 167.464 373.125 373.638 0 26.33-2.724 52.024-7.904 76.816l0.424-2.428c-29.413 149.839-153.142 268.665-303.834 292.963-18.464 3.239-39.725 5.091-61.418 5.091-138.361 0-259.126-75.335-323.516-187.223l-0.96-1.81c-6.999-11.628-19.554-19.287-33.897-19.287-7.063 0-13.692 1.857-19.425 5.109l0.196-0.102c-19.075 10.39-27.175 34.636-16.464 53.445 79.226 138.255 225.922 229.896 394.022 229.896 27.593 0 54.609-2.469 80.84-7.199l-2.753 0.412c194.547-32.665 347.849-194.865 371.188-390.744 2.189-16.715 3.439-36.046 3.439-55.669 0-112.056-40.75-214.594-108.24-293.603l0.521 0.624c0.315 0.007 0.687 0.011 1.059 0.011 14.701 0 28.007-5.971 37.626-15.62l106.571-106.572c10.052-9.705 16.294-23.3 16.294-38.353 0-29.429-23.857-53.286-53.286-53.286-15.053 0-28.648 6.242-38.338 16.278l-0.015 0.016-106.571 106.57c-9.652 9.62-15.623 22.927-15.623 37.629 0 0.371 0.004 0.742 0.011 1.111l-0.001-0.055zM32 384.226c0 22.22 17.905 39.964 39.965 39.964h148.453l95.594 191.030c6.707 13.206 20.189 22.098 35.749 22.098 14.774 0 27.675-8.016 34.592-19.937l0.103-0.191 176.11-308.15 73.16 146.323c6.696 13.198 20.158 22.090 35.699 22.112h53.289c0.084 0.001 0.183 0.001 0.283 0.001 22.072 0 39.965-17.893 39.965-39.965s-17.893-39.965-39.965-39.965c-0.099 0-0.199 0-0.298 0.001h-28.547l-95.54-191.028c-6.706-13.207-20.189-22.1-35.75-22.1-14.774 0-27.675 8.016-34.592 19.936l-0.103 0.191-176.11 308.15-73.161-146.322c-6.703-13.214-20.189-22.113-35.754-22.114h-173.070c-22.069 0.060-39.95 17.905-40.070 39.954v0.011z" />
<glyph unicode="&#xe6d9;" glyph-name="net-hot" horiz-adv-x="1099" d="M572.608 305.344l44.032 51.136c55.872 75.712 88.384 158.912 92.736 250.432 27.519-33.423 49.247-72.809 62.932-115.784l0.684-2.488c17.474 7.534 37.821 13.449 59.028 16.773l1.452 0.187c-52.224 170.112-209.152 294.336-396.224 294.336-2.171 0.041-4.731 0.064-7.297 0.064-229.75 0-416-186.25-416-416s186.25-416 416-416c2.566 0 5.126 0.023 7.681 0.069l-0.384-0.005c54.592 0 106.56 10.816 154.368 29.952-7.902 17.477-14.792 38.058-19.613 59.423l-0.419 2.209c-27.416-11.969-59.229-20.812-92.495-24.977l-1.713-0.175-0.32 0.384c-54.056 36.818-97.974 84.54-129.359 140.263l-1.073 2.073c70.535 17.367 132.151 48.347 184.71 90.215l-0.966-0.743c15.341 12.514 29.117 25.154 42.129 38.541l0.111 0.115zM492.928 731.072c56.727-9.251 107.158-30.913 150.197-62.14l-1.013 0.7c6.848-92.416-15.872-182.144-65.536-257.344-19.451 23.837-40.354 45.024-63.082 64.11l-0.726 0.594c-48.467 40.033-106.031 71.039-168.97 89.456l-3.382 0.848c35.591 68.324 87.501 123.846 150.729 162.755l1.783 1.021zM389.248 732.288c-46.712-41.804-84.828-92.117-112.105-148.641l-1.239-2.847c-48.32 6.784-88.704 6.336-131.136-1.408 55.246 81.683 142.094 138.406 242.608 152.678l1.872 0.218zM115.136 242.688c-18.789 41.5-29.738 89.983-29.738 141.022 0 44.956 8.494 87.928 23.965 127.399l-0.82-2.374c30.382 7.91 65.26 12.451 101.199 12.451 14.894 0 29.607-0.78 44.098-2.301l-1.809 0.154c-13.622-42.152-21.585-90.663-21.824-141v-0.12c0-52.352 9.344-103.36 25.536-151.616-6.97-0.421-15.119-0.661-23.325-0.661-41.814 0-82.174 6.229-120.202 17.809l2.918-0.764zM373.952 38.080c-86.956 16.413-160.971 62.847-212.495 127.906l-0.561 0.734c23.488-3.52 47.040-5.312 70.592-5.312 16.512 0 32.832 2.432 49.216 4.096 25.083-49.137 56.224-91.188 93.162-127.34l0.086-0.084zM319.872 235.52c-16.129 42.335-25.509 91.291-25.6 142.425v0.039c0.221 46.402 8.005 90.913 22.18 132.465l-0.868-2.929c60.259-16.188 112.673-43.761 157.251-80.501l-0.707 0.565c24.32-20.032 45.632-42.624 64.384-67.008-14.27-15.835-29.367-30.242-45.481-43.454l-0.727-0.578c-47.601-38.288-104.954-66.524-167.679-80.509l-2.753-0.515zM925.632 273.024v0zM925.632 362.752c14.267-1.008 25.459-12.829 25.459-27.264s-11.192-26.256-25.372-27.259l-0.087-0.005c-15.057 0-27.264 12.207-27.264 27.264s12.207 27.264 27.264 27.264v0zM731.52 197.184c-40.512 0-77.76-48.128-113.728-147.264-0.71-1.825-1.121-3.938-1.121-6.146 0-9.614 7.794-17.408 17.408-17.408 0.102 0 0.203 0.001 0.304 0.003h-0.015c2.157 0.008 4.224 0.382 6.146 1.064l-0.13-0.040c88.768 32.192 137.856 66.88 145.856 103.040 2.752 12.352 2.112 30.976-16.256 49.216-11.456 11.648-24.512 17.536-38.464 17.536zM751.744 138.048c-1.152-5.376-6.528-16.832-30.016-32.96-16.079-10.742-34.528-20.729-53.895-28.979l-2.233-0.845c11.136 25.856 22.4 46.4 33.28 61.056 12.224 16.576 23.872 25.664 32.64 25.664 4.352 0 8.768-2.368 13.504-7.168 7.616-7.552 7.616-12.928 6.72-16.768zM1053.76 487.552c-56.512-0.768-107.136-10.752-150.272-29.952-42.825-18.885-78.546-47.011-105.851-82.021l-0.453-0.603c-19.392-1.92-39.232-9.92-59.136-23.808-19.516-14.357-36.385-30.677-50.846-48.987l-0.418-0.549c-25.6-32-42.624-64-45.888-70.4-1.18-2.305-1.872-5.028-1.872-7.913 0-5.894 2.887-11.114 7.324-14.323l0.052-0.036c2.858-1.987 6.402-3.174 10.222-3.174 4.823 0 9.203 1.892 12.441 4.973l-0.007-0.007 0.768 0.64c2.24 2.112 11.904 10.688 27.136 19.392 13.248 7.488 33.856 16.704 59.136 19.264 8.384-17.6 26.24-37.056 36.608-47.616 10.496-10.368 29.888-28.16 47.36-36.608-3.569-33.765-17.716-63.692-39.016-86.963l0.104 0.115-0.256-0.32-0.512-0.512-1.152-1.344v-0.192c-2.073-2.858-3.317-6.436-3.317-10.304s1.243-7.446 3.352-10.355l-0.035 0.051c3.212-4.404 8.354-7.232 14.157-7.232 0.040 0 0.081 0 0.121 0h-0.006c2.752 0 5.376 0.64 8.256 1.984 26.64 14.049 49.571 29.255 70.821 46.454l-0.805-0.63c20.736 16.768 37.376 33.92 49.472 51.2 13.888 19.712 21.888 39.552 23.872 59.136 35.581 27.787 63.699 63.499 81.937 104.571l0.687 1.733c19.776 45.12 29.76 97.856 29.888 156.736v17.664l-23.872-0.064zM919.744 179.072c-12.224-21.888-33.152-41.856-53.504-57.792 4.38 12.232 7.571 26.456 8.969 41.203l0.055 0.717c9.216 2.112 25.088 6.592 44.48 15.872zM1042.112 452.032c-3.52-88.832-33.28-160.32-86.144-207.040-45.12-39.744-92.096-48.896-97.024-48.896 0 0-4.032 0.768-14.016 7.744-10.143 7.412-19.087 15.117-27.378 23.473l-0.014 0.015c-8.391 8.354-16.137 17.338-23.168 26.883l-0.448 0.637c-6.4 9.216-7.488 13.312-7.616 13.312 0 5.824 9.28 52.672 48.896 97.6 46.784 53.056 118.144 82.816 206.912 86.272zM769.344 329.536c-9.28-19.264-13.76-35.2-15.872-44.48-15.501-1.382-29.796-4.624-43.295-9.528l1.183 0.376c16 20.48 36.032 41.408 57.984 53.632z" />
<glyph unicode="&#xe6dc;" glyph-name="net-conf" horiz-adv-x="1099" d="M572.608 305.344l44.032 51.136c55.872 75.712 88.384 158.912 92.736 250.432 27.519-33.423 49.247-72.809 62.932-115.784l0.684-2.488c17.474 7.534 37.821 13.449 59.028 16.773l1.452 0.187c-52.224 170.112-209.216 294.336-396.224 294.336-2.171 0.041-4.731 0.064-7.297 0.064-229.75 0-416-186.25-416-416s186.25-416 416-416c2.566 0 5.126 0.023 7.681 0.069l-0.384-0.005c54.592 0 106.56 10.816 154.368 29.952-7.902 17.477-14.792 38.058-19.613 59.423l-0.419 2.209c-27.404-11.905-59.209-20.742-92.454-24.97l-1.754-0.182-0.32 0.384c-54.057 36.84-97.974 84.582-129.358 140.324l-1.074 2.076c65.984 16.512 129.088 45.504 183.744 89.408 15.341 12.514 29.117 25.154 42.129 38.541l0.111 0.115zM492.928 731.072c56.727-9.251 107.158-30.913 150.197-62.14l-1.013 0.7c6.848-92.416-15.872-182.144-65.536-257.344-19.451 23.837-40.354 45.024-63.082 64.11l-0.726 0.594c-48.467 40.033-106.031 71.039-168.97 89.456l-3.382 0.848c35.591 68.324 87.501 123.846 150.729 162.755l1.783 1.021zM389.248 732.288c-46.712-41.804-84.828-92.117-112.105-148.641l-1.239-2.847c-48.32 6.784-88.704 6.336-131.136-1.408 55.246 81.683 142.094 138.406 242.608 152.678l1.872 0.218zM115.136 242.688c-18.789 41.5-29.738 89.983-29.738 141.022 0 44.956 8.494 87.928 23.965 127.399l-0.82-2.374c30.382 7.91 65.26 12.451 101.199 12.451 14.894 0 29.607-0.78 44.098-2.301l-1.809 0.154c-13.622-42.152-21.585-90.663-21.824-141v-0.12c0-52.352 9.344-103.36 25.536-151.616-6.97-0.421-15.119-0.661-23.325-0.661-41.814 0-82.174 6.229-120.202 17.809l2.918-0.764zM373.952 38.144c-86.964 16.389-160.986 62.829-212.494 127.905l-0.562 0.735c23.488-3.584 47.040-5.376 70.592-5.376 16.512 0 32.832 2.496 49.216 4.096 25.101-49.107 56.239-91.135 93.163-127.277l0.085-0.083zM319.872 235.52c-16.134 42.355-25.514 91.334-25.6 142.492v0.036c0.221 46.402 8.005 90.913 22.18 132.465l-0.868-2.929c60.259-16.188 112.673-43.761 157.251-80.501l-0.707 0.565c24.32-20.032 45.632-42.624 64.384-67.008-14.278-15.886-29.375-30.334-45.491-43.588l-0.717-0.572c-47.613-38.244-104.962-66.455-167.674-80.443l-2.758-0.517zM1075.712 127.040c0.237-1.655 0.372-3.567 0.372-5.51 0-3.105-0.345-6.129-1-9.036l0.052 0.274c-2.186-12.279-6.806-23.19-13.363-32.657l0.179 0.273c-2.767-4.097-6.376-7.419-10.596-9.776l-0.156-0.080c-2.988-1.706-6.53-2.796-10.306-3.005l-0.062-0.003c-3.553 0.062-6.91 0.833-9.957 2.177l0.165-0.065c-3.2 0.896-7.36 1.728-12.224 2.624s-9.856 1.024-14.912 0.512-10.176-1.472-15.168-3.136-9.472-4.48-12.992-8.384c-7.334-7.322-12.32-16.993-13.734-27.789l-0.026-0.243c-0.314-2.213-0.493-4.77-0.493-7.368 0-8.204 1.784-15.99 4.986-22.993l-0.142 0.346c1.364-2.55 2.164-5.578 2.164-8.793 0-4.119-1.315-7.931-3.547-11.039l0.039 0.057c-2.68-3.092-5.757-5.742-9.175-7.9l-0.169-0.1c-4.224-2.88-8.96-5.376-14.016-7.616-4.537-2.147-9.87-4.034-15.413-5.383l-0.587-0.121c-5.568-1.28-10.432-1.984-14.72-1.984-2.944 0-5.696 1.152-8.32 3.52s-4.352 4.736-5.44 7.36h-0.512c-3.584 10.24-9.728 18.88-18.368 26.24s-18.688 11.136-30.208 11.136c-11.136 0-21.184-3.776-30.208-11.136s-15.296-15.872-18.944-25.728c-1.359-3.732-3.953-6.741-7.279-8.598l-0.081-0.042c-2.954-1.733-6.505-2.756-10.295-2.756-0.138 0-0.276 0.001-0.414 0.004h0.021c-5.576 0.133-10.884 1.083-15.873 2.734l0.385-0.11c-6.833 1.889-12.555 3.941-18.083 6.353l0.867-0.337c-5.917 2.541-11.011 5.477-15.708 8.922l0.22-0.154c-3.962 2.733-7.343 5.951-10.162 9.623l-0.078 0.105c-1.602 2.275-2.612 5.071-2.751 8.094l-0.001 0.034c0.268 4.81 1.635 9.248 3.853 13.139l-0.077-0.147c2.781 5.98 4.403 12.981 4.403 20.362 0 1.936-0.112 3.846-0.329 5.723l0.022-0.229c-1.089 10.486-5.647 19.742-12.489 26.761l0.009-0.009c-4.317 4.718-10.040 8.084-16.503 9.437l-0.201 0.035c-4.611 1.152-9.904 1.812-15.352 1.812-1.174 0-2.34-0.031-3.498-0.091l0.162 0.007c-7.661-0.416-14.844-1.86-21.61-4.199l0.554 0.167c-1.597-0.463-3.432-0.729-5.328-0.729-3.062 0-5.962 0.694-8.551 1.932l0.119-0.051c-3.648 1.28-6.912 4.224-10.048 9.024-6.245 9.564-11.083 20.707-13.876 32.637l-0.14 0.707c-0.799 3.137-1.257 6.739-1.257 10.448 0 1.595 0.085 3.17 0.25 4.721l-0.017-0.193c1.024 7.232 4.224 11.904 9.856 13.888 9.728 3.904 18.624 10.368 26.432 19.392 7.308 7.945 11.801 18.58 11.84 30.264v0.008c0.001 0.113 0.002 0.246 0.002 0.379 0 11.496-4.51 21.939-11.858 29.655l0.017-0.018c-7.211 7.975-16.052 14.333-26.012 18.569l-0.484 0.183c-2.88 0.896-5.312 3.264-7.232 6.976s-3.008 7.616-3.008 11.52c0 4.224 0.704 9.024 1.92 14.272 1.344 5.248 3.072 10.368 5.12 15.232s4.48 9.408 7.296 13.632c2.448 3.656 5.496 6.704 9.035 9.078l0.117 0.074c1.876 1.266 4.187 2.021 6.674 2.021 0.331 0 0.66-0.013 0.984-0.040l-0.043 0.003c3.122-0.512 5.859-1.201 8.502-2.094l-0.374 0.11c9.728-3.904 20.032-5.12 30.656-3.648 11.121 1.54 20.847 6.606 28.222 14.014l0.002 0.002c3.894 3.95 6.853 8.833 8.511 14.281l0.065 0.247c2.446 7.25 3.857 15.599 3.857 24.277 0 2.788-0.146 5.541-0.43 8.253l0.029-0.339c-0.435 4.331-0.864 7.685-1.368 11.014l0.152-1.222c-0.687 1.921-1.288 4.225-1.692 6.595l-0.036 0.253c-0.178 0.716-0.28 1.539-0.28 2.385 0 1.648 0.387 3.206 1.075 4.587l-0.027-0.060c1.92 4.544 5.44 8.576 10.56 12.032s10.624 6.4 16.448 8.576c4.821 2.010 10.577 3.817 16.521 5.12l0.695 0.128c5.568 1.152 9.984 1.664 13.248 1.664 4.224 0 7.616-1.344 9.984-4.16 2.223-2.415 3.987-5.292 5.129-8.465l0.055-0.175c3.957-9.381 9.985-17.217 17.544-23.204l0.12-0.092c7.589-6.259 17.412-10.055 28.122-10.055 0.283 0 0.566 0.003 0.848 0.008l-0.042-0.001c0.165-0.002 0.36-0.003 0.556-0.003 22.151 0 41.049 13.927 48.415 33.503l0.118 0.356c1.702 3.12 3.747 5.797 6.136 8.12l0.008 0.008c2.119 2.444 5.183 4.022 8.617 4.159l0.023 0.001c4.544 0 9.472-0.64 14.912-1.984 5.376-1.344 10.752-3.136 15.936-5.44 10.34-4.497 18.848-11.565 24.961-20.414l0.127-0.194c1.066-1.725 1.698-3.817 1.698-6.056 0-0.916-0.106-1.807-0.306-2.663l0.016 0.079c-0.437-2.511-1.103-4.745-1.997-6.861l0.077 0.205c-2.927-6.349-4.634-13.776-4.634-21.603 0-2.948 0.242-5.839 0.708-8.655l-0.042 0.306c1.6-10.56 6.4-19.712 14.272-27.584s17.472-12.096 28.928-12.992c1.645-0.154 3.558-0.242 5.492-0.242 9.601 0 18.695 2.166 26.822 6.036l-0.378-0.162c2.236 1.309 4.923 2.082 7.79 2.082 0.615 0 1.222-0.036 1.818-0.105l-0.073 0.007c3.712-0.282 7.007-1.866 9.474-4.29l-0.002 0.002c5.605-5.777 10.030-12.735 12.862-20.46l0.13-0.404c3.84-9.472 6.272-18.88 7.616-28.352 0.64-5.504-0.256-9.856-2.688-12.992-1.945-2.663-4.514-4.76-7.498-6.097l-0.118-0.047c-10.53-3.902-19.326-10.409-25.889-18.755l-0.095-0.125c-6.736-8.247-10.817-18.893-10.817-30.491 0-0.081 0-0.161 0.001-0.241v0.012c-0.001-0.137-0.002-0.299-0.002-0.462 0-21.404 13.522-39.649 32.49-46.659l0.344-0.111c2.267-1.221 4.214-2.515 6.032-3.966l-0.080 0.062c3.544-2.896 6.154-6.813 7.388-11.301l0.036-0.155M847.488 82.816c14.656 0 28.608 2.88 41.664 8.512 13.12 5.504 24.512 13.12 34.112 22.976 9.664 9.856 17.28 21.248 22.784 34.112 5.568 12.992 8.384 26.88 8.384 41.472 0.001 0.158 0.001 0.346 0.001 0.533 0 43.822-26.629 81.425-64.588 97.51l-0.694 0.261c-13.056 5.632-27.008 8.384-41.664 8.384s-28.608-2.752-41.536-8.384c-25.554-11.121-45.51-31.118-56.308-56.010l-0.268-0.694c-5.568-12.992-8.32-26.88-8.32-41.6 0-14.656 2.752-28.48 8.32-41.472 5.568-12.864 13.184-24.256 22.784-34.112 9.664-9.856 20.992-17.472 33.856-22.976 12.928-5.632 26.816-8.512 41.472-8.512z" />
<glyph unicode="&#xe6de;" glyph-name="wifi-conf" d="M653.952 451.968c18.048 14.336 37.44 26.752 58.368 36.992-312.704 220.608-565.952-50.176-568.768-53.632-11.2-12.736-11.2-32.96 1.472-44.032 5.952-4.48 14.208-8.256 20.16-8.256 0.162-0.003 0.352-0.005 0.543-0.005 9.411 0 17.806 4.349 23.284 11.148l0.045 0.057c8.896 10.24 206.272 219.968 464.896 57.728zM853.696 531.648c12.736-11.2 32.896-11.2 44.096 2.944 5.013 5.607 8.078 13.048 8.078 21.205 0 9.341-4.018 17.743-10.42 23.572l-0.026 0.023c-465.088 411.456-873.6 1.536-876.544-3.712-5.551-5.672-8.976-13.444-8.976-22.016s3.425-16.344 8.981-22.022l-0.005 0.006c5.593-6.027 13.557-9.787 22.4-9.787s16.807 3.76 22.382 9.767l0.018 0.019c15.616 15.68 370.368 371.84 790.016 0zM457.216 217.92c-34.541-0.036-62.528-28.046-62.528-62.592 0-34.569 28.023-62.592 62.592-62.592 34.546 0 62.556 27.987 62.592 62.524v0.003c0 0.038 0 0.083 0 0.128 0 34.533-27.995 62.528-62.528 62.528-0.045 0-0.090 0-0.135 0h0.007zM264.512 291.968c-11.2-14.272-9.664-32.896 4.48-44.096 12.672-11.264 32.896-9.6 44.096 4.608 0 0 58.24 69.376 137.344 70.848 32.64 0.896 64.384-10.368 96-30.656 6.208 20.992 14.4 40.96 24.576 59.968-39.936 23.36-81.088 35.968-123.52 34.176-107.52-4.544-179.968-89.6-182.976-94.848zM1001.344 166.72c-17.118 6.34-29.099 22.527-29.099 41.512 0 10.457 3.635 20.065 9.71 27.63l-0.067-0.086c5.842 7.535 13.605 13.319 22.56 16.653l0.352 0.115c2.75 1.205 5.023 3.066 6.687 5.392l0.033 0.048c2.176 2.752 2.944 6.656 2.368 11.52-1.407 9.433-3.73 17.903-6.929 25.929l0.273-0.777c-2.71 7.19-6.645 13.346-11.602 18.515l0.018-0.019c-2.189 2.154-5.142 3.538-8.416 3.711l-0.032 0.001c-0.502 0.064-1.083 0.101-1.672 0.101-2.489 0-4.824-0.655-6.845-1.801l0.069 0.036c-6.92-3.309-15.041-5.242-23.613-5.242-1.601 0-3.185 0.067-4.752 0.199l0.205-0.014c-10.068 0.576-19.028 4.897-25.595 11.578l-0.005 0.006c-6.614 6.326-11.167 14.758-12.58 24.217l-0.028 0.231c-0.373 2.226-0.586 4.791-0.586 7.406 0 6.911 1.488 13.474 4.162 19.387l-0.12-0.296c0.794 1.707 1.398 3.689 1.713 5.766l0.015 0.122c0.128 0.649 0.201 1.396 0.201 2.16 0 2.047-0.525 3.97-1.447 5.645l0.031-0.060c-5.606 7.972-13.167 14.217-21.999 18.107l-0.337 0.133c-3.947 1.805-8.637 3.449-13.494 4.675l-0.586 0.125c-3.96 1.085-8.515 1.736-13.214 1.792h-0.034c-3.081-0.101-5.813-1.515-7.668-3.697l-0.012-0.015c-2.097-2.057-3.886-4.417-5.298-7.012l-0.078-0.156c-6.603-17.632-23.312-29.956-42.9-29.956-0.218 0-0.436 0.002-0.653 0.005h0.033c-0.261-0.006-0.568-0.010-0.877-0.010-9.405 0-18.025 3.365-24.721 8.956l0.061-0.050c-6.789 5.379-12.118 12.311-15.49 20.272l-0.126 0.336c-1.056 2.881-2.601 5.352-4.555 7.436l0.011-0.012c-2.176 2.56-5.184 3.712-9.024 3.712-4.219-0.127-8.243-0.657-12.128-1.553l0.416 0.081c-11.243-2.501-21.176-6.728-30.060-12.443l0.364 0.219c-4.087-2.554-7.295-6.174-9.282-10.474l-0.062-0.15c-0.631-1.195-1.001-2.612-1.001-4.115 0-0.72 0.085-1.42 0.245-2.090l-0.012 0.061c0.365-2.306 0.9-4.353 1.611-6.316l-0.075 0.236 1.088-8.704c1.088-9.6-0.128-19.264-3.072-28.48-1.517-5.039-4.123-9.362-7.557-12.869l0.005 0.005c-6.566-6.528-15.177-11.005-24.787-12.388l-0.237-0.028c-2.218-0.329-4.779-0.517-7.383-0.517-7.141 0-13.952 1.413-20.169 3.973l0.352-0.129c-2.024 0.706-4.422 1.287-6.894 1.639l-0.21 0.025c-0.169 0.009-0.366 0.014-0.565 0.014-2.256 0-4.361-0.649-6.138-1.77l0.048 0.028c-3.256-2.168-5.98-4.852-8.127-7.964l-0.065-0.1c-4.824-7.325-8.593-15.849-10.828-24.976l-0.116-0.56c-1.002-3.806-1.605-8.187-1.664-12.699v-0.037c0.021-3.756 0.991-7.28 2.681-10.353l-0.057 0.113c1.237-2.849 3.505-5.055 6.322-6.181l0.078-0.027c9.285-3.863 17.133-9.514 23.433-16.577l0.055-0.063c6.46-6.764 10.435-15.948 10.435-26.061 0-0.175-0.001-0.351-0.004-0.526v0.027c-0.024-10.329-3.983-19.728-10.458-26.781l0.026 0.029c-6.258-7.418-14.128-13.276-23.086-17.065l-0.402-0.151c-4.864-1.728-7.68-5.888-8.704-12.224-0.124-1.146-0.195-2.475-0.195-3.821 0-3.374 0.445-6.644 1.279-9.754l-0.060 0.263c2.368-10.432 6.592-20.416 12.352-29.504 2.816-4.16 5.696-6.912 8.96-8 2.181-1.028 4.738-1.628 7.435-1.628 1.635 0 3.218 0.22 4.722 0.633l-0.125-0.029c6.144 1.92 12.288 3.264 18.752 3.584 0.899 0.052 1.95 0.082 3.008 0.082 4.797 0 9.45-0.614 13.886-1.767l-0.383 0.084c5.824-1.088 10.88-4.032 14.784-8.32 6.015-6.228 10.047-14.407 11.056-23.498l0.016-0.182c0.156-1.406 0.245-3.035 0.245-4.686 0-6.573-1.41-12.817-3.943-18.446l0.114 0.284c-1.951-3.287-3.184-7.207-3.39-11.398l-0.002-0.058c0.119-2.71 0.987-5.195 2.4-7.282l-0.032 0.050c2.56-3.392 5.568-6.336 9.216-8.704 4.16-3.008 8.832-5.632 13.568-7.68 4.992-2.112 10.112-3.904 15.232-5.376 4.108-1.339 8.845-2.172 13.757-2.303l0.067-0.001c0.113-0.003 0.246-0.004 0.38-0.004 3.318 0 6.431 0.88 9.118 2.419l-0.090-0.047c3.038 1.705 5.331 4.434 6.435 7.71l0.029 0.098c3.639 9.15 9.409 16.792 16.719 22.57l0.113 0.086c7.132 6.178 16.503 9.943 26.752 9.943s19.62-3.765 26.803-9.987l-0.051 0.044c7.256-6.054 12.845-13.868 16.136-22.795l0.12-0.373h0.448c1.024-2.432 2.56-4.352 4.928-6.656 1.862-1.845 4.406-3.005 7.219-3.072h0.013c3.84 0 8.192 0.576 13.056 1.728s9.6 2.816 14.144 4.864c4.544 1.984 8.768 4.16 12.416 6.72 3.191 1.969 5.915 4.326 8.214 7.053l0.042 0.051c1.966 2.726 3.145 6.134 3.145 9.818 0 2.768-0.666 5.38-1.845 7.686l0.044-0.095c-2.753 5.892-4.359 12.793-4.359 20.070 0 2.334 0.165 4.63 0.485 6.876l-0.030-0.258c1.292 9.738 5.669 18.273 12.1 24.772l-0.004-0.004c3.064 3.389 6.974 5.957 11.4 7.373l0.184 0.051c5.407 1.863 11.638 2.938 18.12 2.938 3.001 0 5.948-0.231 8.825-0.675l-0.321 0.041c4.352-0.768 7.936-1.6 10.752-2.304 2.752-1.28 5.696-1.856 8.768-1.856 3.379 0.226 6.497 1.147 9.277 2.62l-0.125-0.060c3.861 2.227 7.054 5.195 9.473 8.734l0.063 0.098c5.824 8.64 9.792 18.368 11.648 28.608 0.56 2.296 0.881 4.932 0.881 7.643 0 1.752-0.134 3.473-0.393 5.153l0.024-0.188c-1.113 4.162-3.46 7.671-6.618 10.211l-0.038 0.029c-1.497 1.363-3.203 2.536-5.054 3.461l-0.13 0.059zM898.368 172.032c-9.931-22.75-27.698-40.538-49.814-50.254l-0.618-0.242c-10.85-4.78-23.5-7.563-36.8-7.563s-25.95 2.783-37.4 7.797l0.6-0.234c-11.704 4.981-21.679 11.878-29.999 20.398l-0.017 0.018c-8.211 8.491-14.971 18.449-19.84 29.432l-0.256 0.648c-4.614 10.627-7.299 23.005-7.299 36.010 0 0.255 0.001 0.51 0.003 0.765v-0.039c0 13.056 2.368 25.344 7.296 36.864 9.6 22.528 27.648 40.576 50.112 50.24 11.456 4.928 23.808 7.36 36.736 7.36s25.344-2.432 36.864-7.36c35.2-14.592 57.984-49.088 57.856-87.104 0-12.8-2.624-25.216-7.424-36.736z" />
<glyph unicode="&#xe6e0;" glyph-name="favorites" horiz-adv-x="1040" d="M1023.632 303.726l-196.219 27.063-87.752 168.748-87.754-168.749-196.218-27.063 141.984-131.353-33.518-185.478 175.506 87.572 175.503-87.572-33.518 185.478 141.986 131.354zM503.635 97.662h-387.012l-54.577 588.915h186.619l49.486-88.203c1.538-4.418 3.985-8.35 7.615-11.458 8.091-9.177 21.902-13.036 34.452-8.165 0.435 0.188 0.75 0.56 1.222 0.786h543.836l-23.519-214.156h59.509l26.205 238.388c0.078 0.451-0.16 0.862-0.237 1.313 0 0.41 0.316 0.786 0.316 1.196 0 1.351-0.591 2.471-0.829 3.709-0.356 1.985-0.514 3.934-1.304 5.766-0.472 1.273-1.301 2.326-2.011 3.483-1.264 1.911-2.408 3.708-4.025 5.32-0.829 0.822-1.856 1.386-2.763 2.098-2.013 1.534-3.987 2.921-6.394 3.896-1.026 0.448-2.249 0.598-3.395 0.935-1.854 0.561-3.707 1.462-5.878 1.648-0.71 0.076-1.381-0.185-2.093-0.185-0.276 0-0.592 0.145-0.829 0.145h-88.87v80.3c0 14.796-13.258 26.781-29.597 26.781h-355.243c-16.338 0-29.598-11.986-29.598-26.781s13.26-26.778 29.598-26.778h325.647v-53.522h-425.054l-50.944 90.9c-0.396 0.75-1.066 1.236-1.541 1.948-1.38 2.321-2.921 4.645-5.013 6.518-1.38 1.198-3.077 1.908-4.695 2.846-1.539 0.935-2.999 2.059-4.774 2.77-2.725 1.011-5.646 1.349-8.564 1.574-0.909 0.074-1.697 0.487-2.604 0.487h-236.776c-0.396 0-0.749-0.187-1.144-0.227-1.224-0.036-2.408 0.34-3.632 0.151-1.854-0.263-3.317-1.159-5.011-1.722-0.989-0.264-1.933-0.563-2.763-0.938-2.566-1.047-4.775-2.471-6.866-4.12-0.789-0.636-1.54-1.235-2.33-1.947-1.697-1.759-2.999-3.595-4.221-5.654-0.632-1.089-1.225-2.136-1.697-3.334-0.632-1.949-1.066-3.895-1.303-5.992-0.157-1.047-0.711-1.911-0.711-2.96 0-0.71 0.396-1.309 0.476-1.984 0.079-0.748-0.237-1.349-0.080-2.059l59.038-637.529c0-0.263-0.158-0.564-0.158-0.935 0-0.826 0.394-1.575 0.472-2.362l0.317-2.809c0.078-0.711 0.63-1.236 0.789-1.948 0.631-1.835 1.304-3.594 2.17-5.317 1.224-2.135 2.685-4.047 4.38-5.881 0.356-0.26 0.671-0.636 1.066-0.973 6.471-5.954 15.627-9.477 25.493-8.054 0.631 0.114 1.064 0.45 1.618 0.565h407.73c16.336 0 29.596 11.984 29.596 26.779-0.001 14.83-13.261 26.777-29.597 26.777z" />
<glyph unicode="&#xe6e1;" glyph-name="ap-conf" d="M989.504 114.368c-17.544 6.539-29.814 23.148-29.814 42.624 0 10.71 3.71 20.553 9.916 28.315l-0.070-0.091c6.009 7.735 13.988 13.674 23.19 17.098l0.362 0.118c2.83 1.225 5.168 3.132 6.879 5.519l0.033 0.049c2.176 2.88 2.944 6.784 2.368 11.84-1.409 9.631-3.801 18.298-7.121 26.489l0.273-0.761c-2.731 7.374-6.758 13.687-11.855 18.959l0.015-0.015c-2.25 2.231-5.295 3.664-8.672 3.839l-0.032 0.001c-0.502 0.063-1.082 0.099-1.671 0.099-2.561 0-4.964-0.678-7.039-1.863l0.070 0.037c-7.083-3.394-15.396-5.377-24.173-5.377-1.651 0-3.286 0.070-4.901 0.208l0.211-0.014c-10.327 0.585-19.515 5.028-26.233 11.897l-0.007 0.007c-6.789 6.466-11.46 15.1-12.899 24.789l-0.029 0.235c-0.387 2.31-0.608 4.971-0.608 7.684 0 7.058 1.496 13.767 4.187 19.828l-0.124-0.312c0.894 1.745 1.546 3.774 1.844 5.915l0.012 0.101c0.133 0.663 0.208 1.425 0.208 2.205 0 2.104-0.552 4.080-1.519 5.789l0.031-0.059c-5.741 8.157-13.473 14.552-22.502 18.551l-0.346 0.137c-4.032 1.843-8.846 3.55-13.825 4.85l-0.639 0.142c-4.058 1.091-8.726 1.742-13.538 1.792h-0.030c-3.159-0.129-5.955-1.586-7.859-3.825l-0.013-0.015c-2.122-2.107-3.95-4.507-5.42-7.134l-0.084-0.162c-6.808-18.088-23.966-30.723-44.075-30.723-0.187 0-0.375 0.001-0.562 0.003h0.028c-0.214-0.004-0.466-0.006-0.718-0.006-9.673 0-18.544 3.434-25.461 9.149l0.068-0.054c-6.975 5.535-12.455 12.659-15.933 20.838l-0.131 0.346c-1.072 3.027-2.663 5.627-4.686 7.824l0.014-0.016c-2.109 2.374-5.169 3.862-8.577 3.862-0.247 0-0.493-0.008-0.736-0.023l0.033 0.002c-15.878-1.094-30.367-6.22-42.7-14.35l0.332 0.206c-4.219-2.612-7.522-6.347-9.537-10.79l-0.063-0.154c-0.674-1.207-1.071-2.649-1.071-4.183 0-0.719 0.087-1.417 0.251-2.085l-0.012 0.060c0.377-2.366 0.957-4.476 1.737-6.486l-0.073 0.214 1.088-8.96c1.088-9.856-0.128-19.84-3.2-29.184-1.502-5.181-4.183-9.622-7.744-13.184v0c-6.712-6.707-15.518-11.318-25.353-12.77l-0.247-0.030c-2.249-0.329-4.845-0.517-7.484-0.517-7.359 0-14.378 1.46-20.781 4.105l0.362-0.132c-2.304 0.512-4.672 1.152-7.232 1.472-0.276 0.025-0.598 0.039-0.923 0.039-2.205 0-4.255-0.66-5.965-1.792l0.040 0.025c-3.349-2.22-6.142-4.992-8.317-8.215l-0.067-0.105c-2.496-3.904-4.864-8.064-6.656-12.416s-3.456-9.088-4.608-13.696c-1.015-3.873-1.64-8.339-1.727-12.936l-0.001-0.056c0.042-3.871 1.032-7.501 2.748-10.682l-0.060 0.122c1.792-3.392 4.032-5.504 6.592-6.4 9.344-3.712 17.408-9.6 24.128-17.024 6.619-6.953 10.69-16.383 10.69-26.764 0-0.153-0.001-0.306-0.003-0.459v0.023c-0.036-10.595-4.090-20.237-10.716-27.487l0.028 0.031c-6.394-7.638-14.49-13.639-23.721-17.451l-0.407-0.149c-4.928-1.792-7.872-6.080-8.896-12.544-0.137-1.214-0.215-2.621-0.215-4.046 0-3.43 0.452-6.755 1.3-9.917l-0.061 0.267c2.432-10.624 6.656-20.928 12.672-30.208 2.944-4.288 5.824-7.104 9.216-8.192 2.215-1.096 4.822-1.737 7.58-1.737 1.676 0 3.297 0.237 4.831 0.679l-0.123-0.030c6.336 1.984 12.608 3.328 19.264 3.648 0.922 0.052 2.001 0.082 3.087 0.082 4.925 0 9.707-0.613 14.274-1.768l-0.401 0.086c6.072-1.176 11.289-4.242 15.145-8.55l0.023-0.026c6.13-6.405 10.264-14.766 11.373-24.056l0.019-0.2c0.138-1.36 0.216-2.939 0.216-4.536 0-6.853-1.446-13.368-4.049-19.257l0.12 0.305c-1.999-3.359-3.258-7.369-3.454-11.657l-0.002-0.055c0.109-2.754 0.977-5.284 2.401-7.412l-0.033 0.052c2.624-3.52 5.76-6.528 9.408-9.024 4.288-3.008 9.088-5.76 13.888-7.872 5.12-2.112 10.432-3.968 15.68-5.504 4.48-1.408 9.344-2.176 14.144-2.304 0.153-0.004 0.333-0.007 0.513-0.007 3.36 0 6.514 0.881 9.245 2.424l-0.094-0.049c3.117 1.761 5.46 4.582 6.564 7.964l0.028 0.1c3.777 9.379 9.717 17.211 17.227 23.143l0.117 0.089c7.339 6.263 16.937 10.073 27.424 10.073s20.085-3.81 27.483-10.122l-0.059 0.049c7.744-6.656 13.44-14.592 16.64-23.808h0.448c1.258-2.664 2.96-4.919 5.035-6.766l0.021-0.018c1.933-1.845 4.537-3.003 7.411-3.072h0.013c4.808 0.081 9.43 0.706 13.86 1.817l-0.42-0.089c4.992 1.152 9.792 2.944 14.464 4.992s8.96 4.288 12.736 6.912c3.281 1.997 6.072 4.422 8.404 7.241l0.044 0.055c2.022 2.779 3.235 6.261 3.235 10.026 0 2.859-0.699 5.554-1.937 7.925l0.045-0.095c-2.809 6.024-4.448 13.078-4.448 20.515 0 2.426 0.174 4.811 0.511 7.143l-0.032-0.266c1.335 9.968 5.826 18.701 12.419 25.347l-0.003-0.003c3.125 3.497 7.122 6.151 11.651 7.627l0.189 0.053c5.559 1.855 11.959 2.924 18.609 2.924 3.053 0 6.054-0.226 8.986-0.661l-0.332 0.040c4.48-0.768 8.192-1.6 11.072-2.304 2.596-1.252 5.646-1.984 8.866-1.984 0.033 0 0.066 0 0.099 0h-0.005c3.457 0.223 6.643 1.192 9.46 2.747l-0.116-0.059c3.961 2.274 7.239 5.307 9.727 8.925l0.065 0.099c5.952 8.832 10.048 18.88 11.968 29.312 0.559 2.367 0.88 5.086 0.88 7.879 0 1.804-0.134 3.577-0.392 5.309l0.024-0.196c-1.133 4.262-3.524 7.857-6.747 10.467l-0.037 0.029c-1.587 1.284-3.369 2.453-5.264 3.437l-0.176 0.083zM884.032 119.808c-5.169-11.938-12.183-22.13-20.797-30.717l-0.003-0.003c-8.768-9.152-19.008-16-30.912-20.928-11.111-4.979-24.081-7.879-37.728-7.879s-26.617 2.9-38.327 8.117l0.599-0.239c-12.001 5.053-22.218 12.131-30.695 20.902l-0.025 0.026c-8.433 8.672-15.383 18.841-20.408 30.060l-0.264 0.66c-4.696 10.946-7.427 23.685-7.427 37.062 0 0.245 0.001 0.491 0.003 0.735v-0.038c0 13.376 2.432 25.856 7.424 37.76 9.92 23.040 28.352 41.536 51.456 51.52 11.776 5.12 24.448 7.552 37.696 7.552s25.984-2.432 37.76-7.552c35.213-14.855 59.48-49.092 59.48-88.996 0-13.751-2.881-26.829-8.074-38.662l0.242 0.619zM390.912 591.872c-0.006 0.592-0.009 1.29-0.009 1.99 0 61.579 24.813 117.363 64.985 157.899l-0.017-0.017c40.424 41.263 96.651 66.912 158.87 67.136h1.578c0.177 0.001 0.385 0.001 0.594 0.001 61.533 0 117.272-24.811 157.757-64.975l-0.015 0.015c41.25-40.464 66.907-96.695 67.2-158.92v-0.056c0-0.038 0-0.083 0-0.129 0-15.061-12.155-27.283-27.19-27.391h-0.266c-15.038 0.035-27.24 12.125-27.456 27.116v0.020c-0.118 47.175-19.515 89.797-50.726 120.422l-0.026 0.026c-30.713 30.424-72.989 49.222-119.655 49.222-0.504 0-1.007-0.002-1.51-0.007l0.077 0.001c-93.791-0.904-169.474-77.146-169.474-171.065 0-0.318 0.001-0.635 0.003-0.952v0.049c0-0.057 0.001-0.125 0.001-0.193 0-15.038-12.119-27.246-27.123-27.391h-0.206c-0.019 0-0.042 0-0.064 0-15.048 0-27.255 12.162-27.328 27.193v0.007zM701.248 679.424c23.040-22.72 35.776-52.992 36.032-85.312 0-0.057 0.001-0.125 0.001-0.193 0-15.038-12.119-27.246-27.123-27.391h-0.334c0 0 0 0-0.001 0-15.025 0-27.219 12.126-27.327 27.126v0.010c-0.059 18.293-7.618 34.808-19.762 46.642l-0.014 0.014c-11.949 11.766-28.359 19.031-46.466 19.031-36.583 0-66.24-29.657-66.24-66.24 0-0.166 0.001-0.331 0.002-0.496v0.025c0-0.038 0-0.083 0-0.129 0-15.025-12.126-27.219-27.126-27.327h-0.010l-0.064 0.192c-0.038 0-0.083 0-0.128 0-15.013 0-27.191 12.134-27.264 27.129v0.007c-0.002 0.229-0.002 0.501-0.002 0.772 0 66.516 53.632 120.505 120.012 121.083h0.951c32 0 62.208-12.352 84.864-34.944zM539.392 64.32h-319.68c-109.12 0-198.336 89.216-198.336 198.272s89.216 198.336 198.336 198.336h369.216v132.16c0 15.128 12.264 27.392 27.392 27.392s27.392-12.264 27.392-27.392v0-132.16c0-1.024-0.448-1.792-0.576-2.752 41.216-5.696 68.864-16.64 98.048-43.52-17.152-12.672-21.312-22.080-37.504-32.704-24.256 17.408-57.28 24.192-87.424 24.192h-396.544c-38.144 0-74.048-15.040-101.312-42.304-26.114-25.855-42.283-61.711-42.283-101.344s16.169-75.489 42.271-101.332l0.012-0.012c27.136-27.264 63.232-42.176 101.312-42.176h319.68c-0.128-4.096 0-8 0-12.16 0-14.528-1.856-28.416 0-42.496zM352.896 309.44c25.842-0.018 46.784-20.971 46.784-46.816 0-25.856-20.96-46.816-46.816-46.816-0.011 0-0.023 0-0.034 0h0.002c-25.842 0.018-46.784 20.971-46.784 46.816 0 25.856 20.96 46.816 46.816 46.816 0.011 0 0.023 0 0.034 0h-0.002zM219.712 309.44c25.792 0 46.784-20.992 46.784-46.848v-0.064c-0.018-25.824-20.957-46.752-46.784-46.752-25.838 0-46.784 20.946-46.784 46.784 0 0.011 0 0.023 0 0.034v-0.002c0 0.038 0 0.083 0 0.128 0 25.803 20.917 46.72 46.72 46.72 0.023 0 0.045 0 0.068 0h-0.004z" />
<glyph unicode="&#xe6e5;" glyph-name="ap-manage" d="M398.272 605.568c-0.007 0.654-0.011 1.426-0.011 2.199 0 63.231 25.5 120.507 66.777 162.104l-0.015-0.015c41.534 42.392 99.298 68.746 163.218 68.992h1.646c61.312 0 118.912-23.68 162.624-66.752 42.373-41.578 68.734-99.343 69.056-163.268v-0.060c0-0.038 0-0.083 0-0.129 0-15.485-12.499-28.051-27.958-28.159h-0.266c0 0-0.001 0-0.001 0-15.462 0-28.014 12.462-28.159 27.89v0.014c-0.123 48.479-20.058 92.279-52.133 123.749l-0.027 0.027c-31.498 31.253-74.882 50.567-122.777 50.567-0.554 0-1.107-0.003-1.659-0.008l0.085 0.001c-96.391-0.832-174.211-79.165-174.211-175.674 0-0.34 0.001-0.679 0.003-1.018v0.052c0-0.039 0-0.084 0-0.13 0-15.475-12.455-28.042-27.887-28.222h-0.145c-0.076-0.001-0.166-0.001-0.256-0.001-15.389 0-27.868 12.457-27.904 27.838v0.003zM717.12 695.552c23.68-23.36 36.736-54.464 37.056-87.616 0-0.039 0-0.084 0-0.13 0-15.475-12.455-28.042-27.887-28.222h-0.337c-0.019 0-0.042 0-0.064 0-15.424 0-27.932 12.485-27.968 27.901v0.004c-1.858 36.155-31.625 64.766-68.075 64.766-36.788 0-66.769-29.144-68.113-65.604l-0.004-0.123c0-0.058 0.001-0.126 0.001-0.194 0-15.44-12.426-27.978-27.824-28.158h-0.017l-0.064 0.256c-0.038 0-0.083 0-0.128 0-15.424 0-27.932 12.485-27.968 27.901v0.003c-0.002 0.23-0.002 0.501-0.002 0.773 0 68.296 55.057 123.733 123.208 124.347h1.018c32.832 0 63.872-12.736 87.168-35.904zM550.784 63.488h-328.448c-112.128 0-203.776 91.648-203.776 203.712s91.648 203.84 203.776 203.84h379.264v135.744c0.736 14.964 13.048 26.818 28.128 26.818s27.392-11.854 28.125-26.752l0.003-0.066v-135.808c0-1.024-0.512-1.856-0.64-2.816 42.304-5.824 70.784-17.088 100.8-44.736-17.6-12.992-21.952-22.72-38.592-33.6-24.896 17.92-58.816 24.896-89.728 24.896h-407.36c-39.168 0-76.096-15.424-104.128-43.456-26.775-26.603-43.348-63.446-43.348-104.16 0-40.682 16.547-77.5 43.278-104.090l0.006-0.006c26.483-26.759 63.217-43.328 103.82-43.328 0.108 0 0.216 0 0.324 0h328.431c-0.128-4.224 0-8.256 0-12.544 0.064-14.912-1.792-29.184 0.064-43.648zM359.232 315.392c26.598 0 48.16-21.562 48.16-48.16s-21.562-48.16-48.16-48.16v0c-26.598 0-48.16 21.562-48.16 48.16s21.562 48.16 48.16 48.16v0zM222.336 315.392c26.496 0 48.064-21.632 48.064-48.192v-0.064c-0.018-26.531-21.53-48.032-48.064-48.032-26.545 0-48.064 21.519-48.064 48.064 0 0.011 0 0.022 0 0.034v-0.002c0 0.019 0 0.042 0 0.064 0 26.558 21.511 48.092 48.061 48.128h0.003zM961.024 119.488c-27.684-27.586-65.876-44.641-108.052-44.641-24.753 0-48.135 5.875-68.826 16.307l0.878-0.401-176-161.536-49.152 49.024 161.6 176.128c-28.544 57.152-20.352 128.832 28.672 175.936 27.713 27.476 65.871 44.454 107.995 44.454 19.349 0 37.862-3.582 54.911-10.12l-1.051 0.354-88.128-88c-3.828-3.965-6.187-9.371-6.187-15.328s2.359-11.363 6.193-15.334l-0.006 0.006 53.248-53.376c3.996-3.757 9.393-6.066 15.328-6.066s11.332 2.308 15.34 6.076l-0.012-0.011 87.936 88.128c20.48-55.232 8.384-118.528-34.688-161.6z" />
<glyph unicode="&#xe6e6;" glyph-name="ac-manage" d="M278.848 403.456v71.168c0 12.928-8.512 21.568-21.248 21.568-12.8 0-21.248-8.64-21.248-21.568v-71.040c-27.264-8.96-46.656-33.664-46.656-64.768 0-30.208 19.648-54.912 46.656-64.448v-142.4c0-12.992 8.448-21.696 21.248-21.696 12.736 0 21.248 8.576 21.248 21.696v142.208c27.2 9.408 46.72 35.2 46.656 64.576 0 30.912-20.288 55.488-46.656 64.704zM257.6 313.024c-0.217-0.007-0.472-0.011-0.728-0.011-13.679 0-24.768 11.089-24.768 24.768 0 0.386 0.009 0.771 0.026 1.153l-0.002-0.054c0.139 14.077 11.423 25.472 25.442 25.791l0.030 0.001c14.912 0 25.472-10.88 25.472-25.92 0.014-0.309 0.022-0.672 0.022-1.037 0-13.644-11.060-24.704-24.704-24.704-0.278 0-0.554 0.005-0.83 0.014l0.040-0.001zM483.008 332.416v142.208c0 12.928-8.512 21.568-21.376 21.568s-21.312-8.704-21.312-21.568v-142.144c-27.477-8.971-46.979-34.368-46.979-64.32 0-0.225 0.001-0.45 0.003-0.675v0.034c0.064-30.144 19.904-55.040 46.976-64.32v-71.232c0-12.992 8.576-21.632 21.312-21.632 11.814 0.036 21.377 9.621 21.377 21.44 0 0.068 0 0.135-0.001 0.202v-0.010 71.168c25.856 9.024 45.248 33.664 46.912 64.384 0 31.168-19.52 55.872-46.912 64.896zM461.632 241.664c-0.254-0.009-0.552-0.015-0.851-0.015-13.679 0-24.768 11.089-24.768 24.768 0 0.343 0.007 0.684 0.021 1.023l-0.002-0.049c0.034 14.203 11.429 25.733 25.576 25.984h0.024c12.864 0 23.552-12.864 25.6-25.984 0.014-0.311 0.022-0.675 0.022-1.041 0-13.644-11.060-24.704-24.704-24.704-0.323 0-0.644 0.006-0.964 0.018l0.046-0.001zM839.168 603.712c0.215-1.185 0.338-2.55 0.338-3.943 0-5.707-2.064-10.933-5.486-14.971l0.028 0.034c-4.822-5.328-11.762-8.662-19.482-8.662-0.374 0-0.745 0.008-1.115 0.023l0.053-0.002c-15.872 0-27.904 13.056-27.904 30.272 4.032 62.848-42.368 117.12-103.36 121.28-9.984 0-18.24 0-28.224-2.112-12.928-2.944-30.528 4.864-33.408 22.464-0.307 1.6-0.482 3.441-0.482 5.322 0 6.317 1.977 12.172 5.345 16.981l-0.063-0.095c4.041 5.827 10.258 9.901 17.45 11.052l0.15 0.020c14.016 2.368 30.336 4.288 42.944 2.112 90.816-6.592 159.744-87.296 153.216-179.776zM944.32 588.608c0-11.136-2.176-22.080-4.352-31.296-0.633-13.634-11.841-24.448-25.574-24.448-0.009 0-0.018 0-0.027 0h-4.159c-13.66 2.422-23.901 14.205-23.901 28.38 0 1.845 0.174 3.65 0.505 5.399l-0.028-0.179c1.984 8.192 1.984 16.256 1.984 24.768 0.302 4.401 0.475 9.538 0.475 14.715 0 120.695-93.689 219.507-212.309 227.678l-0.71 0.039c-4.501 0.57-9.709 0.896-14.993 0.896-0.016 0-0.033 0-0.049 0h0.002c-11.392 0-23.040-1.472-34.304-2.88-1.555-0.301-3.343-0.474-5.172-0.474-6.966 0-13.347 2.501-18.296 6.653l0.044-0.036c-5.127 4.125-8.436 10.328-8.639 17.311l-0.001 0.033c-0.164 1.123-0.257 2.419-0.257 3.737 0 6.774 2.471 12.971 6.56 17.74l-0.031-0.037c4.083 5.213 10.296 8.597 17.306 8.831l0.038 0.001c20.032 2.176 41.28 4.224 60.736 2.112 78.357-4.49 147.519-40.467 195.628-95.358l0.276-0.322c43.406-48.613 69.934-113.106 69.934-183.794 0-6.851-0.249-13.645-0.739-20.371l0.053 0.901zM507.136-25.536h-382.080c-51.904 0-94.784 41.536-94.784 91.776v492.48c0 49.728 42.88 96.576 94.784 96.576h491.648c51.904 0 94.656-41.472 94.656-91.648v-231.872c-33.92 0-28.864-1.024-67.776-1.024v210.432c0 24-20.736 44.032-45.696 44.032h-453.44v1.92c-24.96 0-45.76-20.032-45.76-44.032v-456.576c0-23.872 20.8-44.032 45.76-44.032h362.688c0 0.128-1.536-53.568 0-68.032zM949.056 70.976c-27.832-27.725-66.225-44.866-108.622-44.866-24.896 0-48.412 5.911-69.221 16.406l0.882-0.403-176.896-162.496-49.408 49.344 162.56 177.024c-28.8 57.472-20.48 129.6 28.8 176.96 27.864 27.629 66.233 44.703 108.589 44.703 19.458 0 38.075-3.603 55.219-10.179l-1.056 0.356-88.64-88.448c-3.865-3.972-6.249-9.404-6.249-15.392s2.384-11.42 6.254-15.397l-0.005 0.005 53.504-53.632c4.008-3.812 9.442-6.156 15.424-6.156s11.416 2.345 15.433 6.165l-0.009-0.009 88.384 88.576c6.208-16.056 9.805-34.636 9.805-54.057 0-42.338-17.094-80.683-44.756-108.511l0.008 0.008z" />
<glyph unicode="&#xe6ea;" glyph-name="ac-conf" d="M264.704 422.4v66.56c0 12.096-8 20.16-19.904 20.16-11.968 0-19.904-8.064-19.904-20.16v-66.496c-25.534-8.351-43.654-31.959-43.654-59.799 0-0.307 0.002-0.614 0.007-0.92l-0.001 0.046c0-28.224 18.368-51.52 43.712-60.288v-133.312c0-12.096 7.936-20.224 19.904-20.224 11.904 0 19.904 8 19.904 20.224v133.184c25.472 8.96 43.776 32.96 43.648 60.416-0.124 28.025-18.169 51.802-43.261 60.472l-0.451 0.136zM244.8 337.664c-0.214-0.007-0.466-0.011-0.719-0.011-12.542 0-22.763 9.939-23.216 22.37l-0.001 0.041v1.792c0.034 13.248 10.655 24.005 23.849 24.256h0.023c13.952 0 23.872-10.176 23.872-24.384 0.015-0.312 0.024-0.678 0.024-1.046 0-12.373-9.753-22.468-21.99-23.017l-0.049-0.002h-1.792zM455.808 355.84v133.12c0 12.096-8 20.16-20.032 20.16s-19.904-8.064-19.904-20.16v-133.12c-25.743-8.322-44.035-32.079-44.035-60.107 0-0.221 0.001-0.442 0.003-0.663v0.034c0.229-27.966 18.415-51.625 43.582-60.030l0.45-0.13v-66.752c0-12.096 8-20.224 19.968-20.224 11.072 0.144 19.997 9.136 20.032 20.221v66.627c24.128 8.512 42.304 31.616 43.84 60.288 0.003 0.241 0.005 0.525 0.005 0.809 0 27.946-18.24 51.632-43.465 59.802l-0.445 0.125zM435.84 270.976c-0.271-0.011-0.589-0.018-0.908-0.018-12.496 0-22.675 9.921-23.091 22.316l-0.001 0.038v1.792c0.070 13.292 10.735 24.069 23.977 24.32h0.023c12.032 0 22.016-12.032 24-24.32 0.011-0.271 0.018-0.59 0.018-0.909 0-12.831-10.401-23.232-23.232-23.232-0.276 0-0.552 0.005-0.826 0.014l0.040-0.001zM789.632 609.792c0.195-1.1 0.306-2.366 0.306-3.659 0-5.484-2.005-10.5-5.322-14.354l0.024 0.029c-4.564-5.052-11.138-8.212-18.45-8.212-0.354 0-0.706 0.007-1.056 0.022l0.050-0.002c-15.040 0-26.432 12.352-26.432 28.736 3.712 58.688-39.552 109.248-96.448 113.088-9.344 0-17.088 0-26.432-1.92-12.608-2.432-28.928 4.8-31.68 21.504-0.262 1.455-0.412 3.13-0.412 4.84 0 6.089 1.903 11.734 5.146 16.373l-0.061-0.092c3.877 5.484 9.757 9.329 16.555 10.475l0.149 0.021c12.928 2.112 27.392 4.16 40.32 1.984 85.184-6.272 149.952-82.048 143.744-168.832zM888.128 595.712c0-10.048-1.984-20.096-4.16-29.376-0.132-6.225-2.726-11.82-6.845-15.869l-0.003-0.003c-2.973-3.009-6.711-5.255-10.899-6.423l-0.173-0.041v-0.896h-10.368c-13.023 2.277-22.796 13.499-22.796 27.004 0 1.767 0.167 3.494 0.487 5.168l-0.027-0.171c1.792 7.616 1.792 15.104 1.792 23.104 0.321 4.368 0.504 9.462 0.504 14.599 0 53.794-20.063 102.902-53.114 140.249l0.194-0.224c-36.142 41.211-87.652 68.181-145.49 71.904l-0.622 0.032c-4.198 0.521-9.067 0.823-14.004 0.832h-0.012c-11.566-0.249-22.672-1.217-33.555-2.866l1.427 0.178c-1.431-0.266-3.078-0.418-4.76-0.418-6.624 0-12.698 2.357-17.429 6.278l0.045-0.037c-4.868 3.958-8.006 9.883-8.191 16.545l-0.001 0.031c-1.408 5.824 0.768 14.016 5.76 20.16 3.891 5.040 9.864 8.31 16.608 8.511l0.032 0.001c18.816 2.112 38.656 3.904 57.088 1.984 73.453-4.256 138.273-38.012 183.355-89.488l0.261-0.304c40.681-45.52 65.545-105.926 65.545-172.14 0-6.448-0.236-12.841-0.699-19.17l0.050 0.846zM978.176 65.088c-18.449 6.841-31.359 24.29-31.359 44.755 0 11.294 3.932 21.67 10.502 29.833l-0.072-0.092c6.237 8.201 14.628 14.467 24.333 17.994l0.371 0.118c2.998 1.277 5.471 3.298 7.26 5.835l0.036 0.053c2.368 3.008 3.2 7.040 2.56 12.352-1.555 10.197-4.055 19.333-7.47 28.008l0.302-0.872c-2.935 7.777-7.172 14.442-12.504 20.058l0.024-0.026c-2.377 2.305-5.581 3.768-9.126 3.903l-0.026 0.001c-0.582 0.075-1.256 0.118-1.939 0.118-2.631 0-5.113-0.635-7.303-1.76l0.090 0.042c-7.584-3.66-16.492-5.799-25.9-5.799-1.584 0-3.153 0.061-4.707 0.18l0.206-0.013c-10.896 0.7-20.578 5.388-27.708 12.604l-0.004 0.004c-7.064 6.804-11.965 15.81-13.597 25.91l-0.035 0.266c-0.378 2.342-0.594 5.043-0.594 7.793 0 7.51 1.609 14.644 4.5 21.076l-0.131-0.325c0.952 1.84 1.61 3.986 1.849 6.257l0.007 0.079c0.157 0.737 0.247 1.584 0.247 2.451 0 2.177-0.566 4.221-1.559 5.995l0.032-0.062c-6.097 8.592-14.251 15.349-23.76 19.628l-0.368 0.148c-4.2 1.886-9.23 3.638-14.427 4.973l-0.677 0.147c-4.208 1.179-9.041 1.857-14.031 1.857-0.085 0-0.169 0-0.254-0.001h0.013c-3.353-0.138-6.325-1.665-8.372-4.018l-0.012-0.014c-2.14-2.246-4.027-4.765-5.595-7.49l-0.101-0.19c-7.078-19.055-25.107-32.387-46.249-32.387-0.188 0-0.376 0.001-0.563 0.003h0.029c-0.153-0.002-0.333-0.003-0.513-0.003-10.319 0-19.804 3.57-27.287 9.543l0.088-0.068c-7.31 5.826-13.052 13.314-16.695 21.907l-0.137 0.365c-1.11 3.206-2.791 5.959-4.941 8.27l0.013-0.014c-2.225 2.489-5.446 4.049-9.031 4.049-0.223 0-0.444-0.006-0.664-0.018l0.031 0.001c-4.224-0.064-8.512-0.64-12.608-1.536-6.392-1.439-11.866-3.155-17.143-5.259l0.759 0.267c-5.965-2.352-11.112-5.17-15.841-8.536l0.225 0.152c-4.462-2.701-7.949-6.62-10.048-11.297l-0.064-0.159c-0.675-1.249-1.071-2.734-1.071-4.312 0-0.833 0.111-1.641 0.318-2.408l-0.015 0.065c0.352-2.456 0.911-4.658 1.674-6.761l-0.074 0.233c0.384-3.136 0.896-6.272 1.152-9.408 1.28-10.432-0.128-20.672-3.264-30.656-1.659-5.45-4.508-10.118-8.258-13.89l0.002 0.002c-7.050-7.062-16.331-11.893-26.696-13.347l-0.248-0.029c-2.471-0.387-5.321-0.608-8.223-0.608-7.603 0-14.851 1.517-21.459 4.264l0.37-0.136c-2.109 0.717-4.673 1.361-7.303 1.812l-0.313 0.044c-0.206 0.012-0.447 0.019-0.689 0.019-2.424 0-4.686-0.698-6.594-1.905l0.051 0.030c-3.559-2.311-6.539-5.189-8.892-8.538l-0.068-0.102c-5.059-7.968-9.101-17.202-11.63-27.043l-0.146-0.669c-1.052-4.064-1.7-8.751-1.791-13.573l-0.001-0.059c0-3.84 1.024-7.552 2.816-11.008 1.792-3.712 4.16-5.952 6.848-6.656 9.792-4.032 18.304-10.24 25.344-17.984 6.901-7.53 11.13-17.607 11.13-28.672s-4.229-21.142-11.159-28.704l0.029 0.032c-6.729-8.048-15.227-14.389-24.914-18.463l-0.43-0.161c-5.248-1.856-8.32-6.4-9.344-13.248-0.139-1.229-0.219-2.653-0.219-4.095 0-3.621 0.5-7.125 1.436-10.447l-0.065 0.271c2.496-11.392 6.976-22.272 13.376-31.872 3.008-4.544 6.080-7.488 9.6-8.64 2.38-1.109 5.166-1.755 8.104-1.755 1.714 0 3.376 0.22 4.96 0.634l-0.136-0.030c6.592 1.984 13.248 3.648 20.224 3.904 1.013 0.067 2.197 0.105 3.389 0.105 5.078 0 9.994-0.693 14.659-1.988l-0.384 0.091c6.436-1.081 11.975-4.317 15.972-8.927l0.028-0.033c6.511-6.705 10.871-15.53 11.951-25.342l0.017-0.194c0.181-1.567 0.285-3.383 0.285-5.224 0-7.052-1.519-13.75-4.247-19.783l0.122 0.303c-2.123-3.478-3.472-7.639-3.709-12.094l-0.003-0.066c0.128-2.944 1.088-5.76 2.56-7.872 2.774-3.665 6.031-6.779 9.715-9.316l0.141-0.092c4.48-3.264 9.472-6.016 14.656-8.128 5.376-2.368 10.88-4.16 16.512-5.888 4.389-1.534 9.452-2.484 14.718-2.623l0.066-0.001c3.584 0 7.040 0.896 10.176 2.624 3.264 1.856 5.706 4.839 6.82 8.408l0.028 0.104c3.91 9.85 10.12 18.076 17.99 24.291l0.122 0.093c7.712 6.624 17.817 10.657 28.864 10.657s21.152-4.033 28.923-10.707l-0.059 0.050c7.86-6.454 13.884-14.869 17.349-24.504l0.123-0.392h0.384c1.322-2.802 3.135-5.168 5.349-7.081l0.027-0.023c2.016-2.056 4.777-3.374 7.846-3.519l0.026-0.001c5.065 0.143 9.899 0.835 14.536 2.019l-0.456-0.099c5.248 1.216 10.432 3.072 15.296 5.248 4.864 2.112 9.344 4.544 13.376 7.232 3.415 2.17 6.344 4.713 8.853 7.628l0.043 0.052c2.132 2.926 3.411 6.593 3.411 10.558 0 3.066-0.765 5.954-2.114 8.483l0.047-0.097c-2.923 6.253-4.628 13.577-4.628 21.3 0 2.601 0.193 5.157 0.567 7.654l-0.035-0.282c1.356 10.496 6.115 19.689 13.116 26.62l0.004 0.004c3.208 3.747 7.394 6.568 12.164 8.077l0.188 0.051c5.767 2.056 12.419 3.244 19.348 3.244 3.315 0 6.566-0.272 9.733-0.794l-0.345 0.047 11.648-2.496c2.751-1.253 5.967-1.984 9.354-1.984 0.019 0 0.038 0 0.057 0h-0.003c3.61 0.156 6.959 1.133 9.91 2.747l-0.118-0.059c4.121 2.508 7.571 5.692 10.298 9.436l0.070 0.1c5.958 8.767 10.32 19.123 12.402 30.281l0.078 0.503c0.591 2.448 0.93 5.259 0.93 8.149 0 1.935-0.152 3.835-0.445 5.688l0.027-0.205c-1.219 4.516-3.714 8.339-7.071 11.173l-0.033 0.027c-1.432 1.472-3.129 2.678-5.016 3.541l-0.104 0.043zM867.136 70.784c-5.312-12.096-12.352-23.040-21.888-32.384-29.248-29.568-73.6-38.4-111.936-22.144-12.615 5.397-23.357 12.878-32.294 22.117l-0.026 0.027c-18.304 18.145-29.636 43.297-29.636 71.096 0 0.318 0.001 0.636 0.004 0.953v-0.049c0 14.208 2.496 27.392 7.872 39.744 10.368 24.256 29.824 43.904 54.080 54.272 12.288 5.376 25.664 7.936 39.616 7.936 0.051 0 0.111 0 0.171 0 56.342 0 102.016-45.674 102.016-102.016 0-14.281-2.934-27.876-8.233-40.216l0.254 0.664zM478.464 20.736h-357.76c-48.576 0-88.704 38.784-88.704 85.888v461.12c0 46.592 40.128 90.432 88.704 90.432h460.224c48.576 0 88.64-38.784 88.64-85.824v-217.088c-31.808 0-27.072-0.96-63.296-0.96v196.992c0 22.464-19.52 41.216-42.88 41.216h-424.512v1.856c-23.36 0-42.88-18.752-42.88-41.216v-427.456c0-22.4 19.52-41.216 42.816-41.216h339.584c0.064 0.064-1.472-50.176 0.064-63.744z" />
<glyph unicode="&#xe6f5;" glyph-name="diagnosis" d="M859.636 151.083c-20.522-122.739-134.905-216.8-273.35-216.8-152.958 0-276.954 114.691-276.954 256.169 0 1.748 0.114 3.469 0.155 5.207-20.29 14.479-37.083 40.321-37.083 63.522 0 2.28 0.183 4.465 0.495 6.58-162.057 105.555-219.943 383.037-209.749 443.278 0 36.207 51.127 76.41 84.66 97.777 11.093 16.4 29.663 27.184 50.739 27.184 33.991 0 61.545-27.974 61.545-62.481s-27.555-62.48-61.545-62.48c-19.628 0-36.906 9.502-48.176 24.030-13.64-7.309-25.678-18.485-25.678-36.527-6.362-40.183 59.56-341.023 215.833-387.353 144.263 41.676 218.19 327.436 214.986 387.353-1.006 18.797-12.019 30.552-24.532 37.938-11.213-15.358-29.047-25.441-49.323-25.441-33.991 0-61.545 27.973-61.545 62.48s27.555 62.481 61.545 62.481c19.668 0 36.979-9.539 48.246-24.116 32.096-19.291 84.403-59.892 87.154-100.844 5.076-75.564-60.338-341.328-209.829-442.902 0.351-2.233 0.575-4.537 0.575-6.956 0-23.071-16.608-48.746-36.745-63.271-0.059-1.819-0.182-3.625-0.182-5.458 0-106.971 93.686-193.689 209.255-193.689 101.766 0 186.481 67.266 205.286 156.367-54.784 17.606-94.504 69.603-94.504 131.042 0 75.916 60.621 137.457 135.399 137.457s135.4-61.542 135.4-137.457c0.001-64.218-43.441-117.994-102.076-133.089zM826.312 359.149c-40.789 0-73.854-33.568-73.854-74.977s33.065-74.977 73.854-74.977c40.789 0 73.854 33.569 73.854 74.977s-33.065 74.977-73.854 74.977zM826.312 246.683c-20.395 0-36.927 16.784-36.927 37.488s16.533 37.488 36.927 37.488c20.395 0 36.927-16.784 36.927-37.488s-16.533-37.488-36.927-37.488z" />
<glyph unicode="&#xe6f8;" glyph-name="setting" d="M393.594 413.344h-271.406c-16.594 0-30-13.406-30-30s13.406-30 30-30h271.781c13.688-51.188 60.75-89.063 116.438-89.062s102.656 37.875 116.438 89.063h274.406c16.594 0 30 13.406 30 30s-13.406 30-30 30h-273.938c-13.031 52.125-60.563 90.938-116.906 90.937s-103.781-38.719-116.812-90.938zM563.281 413.344c4.875-8.625 7.594-18.563 7.594-29.062 0-11.344-3.188-21.938-8.719-30.938-10.594-17.438-29.813-29.063-51.75-29.062s-41.156 11.625-51.75 29.062c-5.531 9-8.719 19.594-8.719 30.938 0 10.5 2.719 20.438 7.594 29.062 10.313 18.469 30.188 30.937 52.875 30.938 22.781 0 42.563-12.469 52.875-30.938zM544.531 113.062h-422.344c-16.594 0-30-13.406-30-30s13.406-30 30-30h422.719c13.688-51.188 60.75-89.063 116.437-89.063s102.656 37.875 116.438 89.063h123.469c16.594 0 30 13.406 30 30s-13.406 30-30 30h-123c-13.031 52.125-60.563 90.938-116.906 90.938s-103.781-38.719-116.812-90.938zM714.219 113.062c4.875-8.625 7.594-18.563 7.594-29.063 0-11.344-3.188-21.938-8.719-30.937-10.594-17.438-29.813-29.063-51.75-29.063s-41.156 11.625-51.75 29.063c-5.531 9-8.719 19.594-8.719 30.938 0 10.5 2.719 20.438 7.594 29.063 10.313 18.469 30.188 30.937 52.875 30.938s42.563-12.469 52.875-30.938zM244.531 713.25h-122.344c-16.594 0-30-13.406-30-30s13.406-30 30-30h122.719c13.688-51.188 60.75-89.063 116.437-89.063s102.656 37.875 116.438 89.063h423.469c16.594 0 30 13.406 30 30s-13.406 30-30 30h-423c-13.031 52.125-60.563 90.938-116.906 90.938s-103.781-38.813-116.812-90.938zM414.219 713.25c4.875-8.625 7.594-18.563 7.594-29.062 0-11.344-3.188-21.938-8.719-30.938-10.594-17.438-29.813-29.063-51.75-29.063s-41.156 11.625-51.75 29.063c-5.531 9-8.719 19.594-8.719 30.938 0 10.5 2.719 20.438 7.594 29.063 10.313 18.469 30.188 30.937 52.875 30.938s42.563-12.563 52.875-30.938z" />
<glyph unicode="&#xe701;" glyph-name="ac" d="M651.136-93.504h-517.312c-54.592 0-99.712 43.648-99.712 96.448v518.336c0 52.352 45.12 101.632 99.712 101.632h517.312c54.592 0 99.648-43.648 99.648-96.448v-523.52c2.368-52.8-45.12-96.448-99.648-96.448zM154.304 551.232c-26.304 0-48.192-21.12-48.192-46.336v-480.384c0-25.28 21.888-46.4 48.192-46.4h477.12c26.24 0 48.128 21.12 48.128 46.4v478.272c0 25.28-21.888 46.336-48.128 46.336h-477.12v2.112zM723.904 757.504c-13.312 2.24-31.104 0-44.992-2.304-7.679-1.277-14.166-5.58-18.307-11.618l-0.061-0.094c-3.395-4.865-5.425-10.902-5.425-17.413 0-1.944 0.181-3.846 0.527-5.69l-0.030 0.19c3.072-18.176 20.288-26.112 34.688-23.488 10.624 2.24 19.328 2.24 29.888 2.24 64.384-4.352 113.344-61.568 109.12-128 0-17.92 12.416-31.488 28.992-31.488 8.896 0 16.448 3.2 21.376 9.024 3.506 4.112 5.638 9.487 5.638 15.361 0 1.516-0.142 2.998-0.413 4.435l0.023-0.148c7.040 97.216-65.472 182.016-161.024 188.992zM922.752 766.336c-50.863 58.053-123.573 95.882-205.164 100.572l-0.788 0.036c-20.736 2.112-43.904 0.064-63.936-2.24-7.278-0.203-13.694-3.724-17.815-9.097l-0.041-0.055c-4.224-4.913-6.795-11.352-6.795-18.392 0-1.368 0.097-2.714 0.285-4.031l-0.018 0.151c0-6.656 3.264-13.248 9.024-17.984 5.093-4.302 11.732-6.916 18.981-6.916 1.819 0 3.599 0.165 5.327 0.48l-0.18-0.027c11.968 1.472 24.32 3.008 36.288 3.008 4.992 0 10.048-0.256 15.744-0.96 125.754-8.613 224.5-112.734 224.5-239.919 0-5.455-0.182-10.868-0.539-16.233l0.039 0.728c0-9.024 0-17.472-2.176-26.24-0.308-1.612-0.484-3.467-0.484-5.363 0-14.746 10.656-27.003 24.687-29.491l0.181-0.027h4.48c0.034 0 0.075 0 0.115 0 7.378 0 14.047 3.038 18.824 7.931l0.005 0.005c4.585 4.414 7.476 10.56 7.616 17.382v0.026c2.606 9.788 4.266 21.1 4.603 32.744l0.005 0.216c0.471 6.194 0.739 13.416 0.739 20.7 0 74.24-27.886 141.966-73.754 193.277l0.247-0.281zM273.344 217.28c-39.597 0.541-71.488 32.767-71.488 72.442 0 0.025 0 0.049 0 0.074v-0.004c0 40.96 31.232 72.704 71.488 72.704 37.952 0 71.424-31.744 71.424-72.704 0.064-38.528-31.232-72.512-71.424-72.512zM273.344 317.12c-14.836-0.322-26.748-12.391-26.816-27.257v-0.007c0-15.872 11.2-27.2 26.816-27.2s26.816 11.328 26.816 27.072c0 15.936-11.2 27.392-26.816 27.392zM273.344 330.688c-13.44 0-22.4 9.088-22.4 22.656v79.424c0 13.568 8.96 22.656 22.4 22.656 13.376 0 22.336-9.088 22.336-22.656v-79.488c0 0 0-0.001 0-0.001 0-12.387-9.969-22.446-22.322-22.59h-0.014zM273.344 49.344c-13.44 0-22.4 9.088-22.4 22.72v156.48c0 13.632 8.96 22.72 22.4 22.72 13.376 0 22.336-9.152 22.336-22.72v-156.48c0-13.696-8.96-22.72-22.336-22.72zM488 142.4c-39.728 0.469-71.766 32.732-71.872 72.502v0.010c0 40.896 31.488 72.64 71.872 72.64s71.872-31.744 71.872-72.64c-2.24-40.768-33.664-72.512-71.872-72.512zM488 242.112c-14.862-0.32-26.804-12.375-26.944-27.251v-0.013c0-15.808 11.264-27.136 26.944-27.136 0.274-0.010 0.596-0.016 0.919-0.016 14.386 0 26.048 11.662 26.048 26.048 0 0.388-0.008 0.775-0.025 1.159l0.002-0.055c-2.176 13.696-13.376 27.264-26.944 27.264zM488 49.344c-13.44 0-22.464 9.088-22.464 22.72v79.36c0 13.568 8.96 22.656 22.464 22.656s22.464-9.088 22.464-22.656v-79.36c0.001-0.057 0.001-0.125 0.001-0.192 0-12.42-10.050-22.492-22.461-22.528h-0.003zM488 253.504c-13.44 0-22.464 9.152-22.464 22.72v156.544c0 13.568 8.96 22.656 22.464 22.656s22.464-9.088 22.464-22.656v-156.48c0.064-11.392-11.2-22.784-22.464-22.784z" />
<glyph unicode="&#xe716;" glyph-name="edit" d="M750.804 581.69l-110.651 110.646 55.348 55.325c18.339 18.314 48.034 18.314 66.372 0l44.255-44.254c18.339-18.338 18.339-48.079 0-66.416l-55.325-55.301zM429.353 260.252l-110.651 110.646 300.808 298.446 110.65-110.646-300.807-298.445zM229.81 169.512l67.322 179.819 109.724-109.746-177.046-70.075zM726.717 131.696c15.488 0 28.030-12.542 28.030-28.030 0-15.464-12.542-28.006-28.030-28.006h-495.598c-15.465 0-28.008 12.541-28.008 28.006 0 15.488 12.542 28.030 28.007 28.030h495.599z" />
<glyph unicode="&#xe718;" glyph-name="ap" d="M730.453 323.698c41.984 0 81.692-16.498 111.616-46.535 30.037-30.037 46.535-69.632 46.535-111.616s-16.498-81.692-46.535-111.616c-29.924-30.037-69.632-46.535-111.616-46.535h-436.907c-41.984 0-81.692 16.498-111.616 46.535-30.037 29.924-46.535 69.632-46.535 111.616s16.498 81.692 46.535 111.616c30.037 30.037 69.632 46.535 111.616 46.535h436.907M730.453 384h-436.907c-120.149 0-218.453-98.304-218.453-218.453s98.304-218.453 218.453-218.453h436.907c120.149 0 218.453 98.304 218.453 218.453s-98.304 218.453-218.453 218.453zM730.453 353.849c-16.612 0-30.151 13.54-30.151 30.151v145.636c0 16.612 13.54 30.151 30.151 30.151s30.151-13.54 30.151-30.151v-145.636c0-16.612-13.54-30.151-30.151-30.151zM242.005 165.547c0-28.465 23.076-51.541 51.541-51.541s51.541 23.076 51.541 51.541v0c0 28.465-23.076 51.541-51.541 51.541s-51.541-23.076-51.541-51.541v0zM388.779 165.547c0-28.465 23.076-51.541 51.541-51.541s51.541 23.076 51.541 51.541v0c0 28.465-23.076 51.541-51.541 51.541s-51.541-23.076-51.541-51.541v0zM512.341 498.347c-16.612 0-30.037 13.312-30.151 29.924-0.455 66.332 25.031 128.91 71.566 176.128s108.772 73.5 175.104 73.956h1.707c65.764 0 127.545-25.372 174.421-71.566 47.218-46.649 73.5-108.772 73.956-175.104 0.114-16.612-13.312-30.265-29.924-30.379h-0.228c-16.612 0-30.037 13.312-30.151 29.924-0.341 50.29-20.252 97.394-55.979 132.665s-83.172 54.5-133.348 54.158c-103.765-0.683-187.506-85.675-186.823-189.326 0.114-16.612-13.312-30.265-29.924-30.379h-0.228zM627.484 499.143c-16.612 0-30.037 13.312-30.151 29.924-0.455 73.5 58.937 133.689 132.324 134.144h0.91c35.271 0 68.494-13.653 93.525-38.457 25.372-25.031 39.367-58.368 39.708-93.98 0.114-16.612-13.312-30.265-29.924-30.379h-0.228c-16.612 0-30.037 13.312-30.151 29.924-0.114 19.456-7.851 37.774-21.732 51.428s-32.313 21.163-51.769 21.049c-40.277-0.228-72.704-33.223-72.476-73.5 0.114-16.612-13.312-30.265-29.924-30.379 0 0.228-0.114 0.228-0.114 0.228z" />
<glyph unicode="&#xe71b;" glyph-name="wifi" d="M980.809 547.2c-498.4 440.8-936 1.6-939.2-4-13.6-13.6-12-35.2 0-47.2 6.4-6.4 15.2-10.4 24-10.4s16.8 3.2 24 10.4c16.8 16.8 396.8 398.4 846.4 0 13.6-12 35.2-12 47.2 3.2 12.8 13.6 11.2 36-2.4 48zM175.209 392.8c-12-13.6-12-35.2 1.6-47.2 6.4-4.8 15.2-8.8 21.6-8.8 8.8 0 18.4 3.2 25.6 12 10.4 12 263.2 282.4 579.2 1.6 13.6-12 35.2-12 47.2 3.2 12 13.6 12 35.2-3.2 47.2-363.2 323.2-668.8-4-672-8zM500.809 340.8c-115.2-4.8-192.8-96-196-101.6-12-15.2-10.4-35.2 4.8-47.2 13.6-12 35.2-10.4 47.2 4.8 0 0 62.4 74.4 147.2 76 54.4 1.6 106.4-25.6 159.2-77.6 6.4-6.4 15.2-10.4 24-10.4s16.8 3.2 24 10.4c13.6 13.6 13.6 33.6 1.6 47.2-66.4 68-137.6 101.6-212 98.4zM444.009 92.8c0-37.6 30.4-67.2 67.2-67.2s67.2 30.4 67.2 67.2c0 37.6-30.4 67.2-67.2 67.2s-67.2-30.4-67.2-67.2z" />
<glyph unicode="&#xe71c;" glyph-name="book1" d="M861.525 850.034h-611.669c-81.556 0-145.636-64.080-145.636-145.636v-640.796c0-81.556 64.080-145.636 145.636-145.636h611.669c34.953 0 58.254 23.302 58.254 58.254v815.559c0 34.953-29.127 58.254-58.254 58.254zM628.508 791.78h116.508v-256.319l-58.254 29.127-58.254-29.127v256.319zM249.856 791.78h320.398v-349.525l116.508 58.254 116.508-58.254v349.525h58.254v-582.542h-611.669c-34.953 0-64.080-11.651-87.381-29.127v524.288c0 46.603 40.778 87.381 87.381 87.381zM249.856-23.78c-46.603 0-87.381 40.778-87.381 87.381s40.778 87.381 87.381 87.381h611.669v-174.763h-611.669z" />
<glyph unicode="&#xe722;" glyph-name="check-empty" d="M464.206 127.56c-0.018 0-0.040 0-0.061 0-12.425 0-23.671 5.051-31.795 13.213l-185.263 185.234c-8.146 8.151-13.184 19.409-13.184 31.843s5.038 23.692 13.184 31.843v0c17.573 17.597 46.099 17.597 63.682 0l153.432-153.442 391.93 391.973c8.151 8.152 19.412 13.195 31.85 13.195s23.7-5.042 31.85-13.195v0c17.558-17.568 17.558-46.085 0-63.682l-423.806-423.782c-8.127-8.154-19.369-13.2-31.79-13.2-0.010 0-0.021 0-0.031 0h0.002zM512.005-96c-264.672 0-480.005 215.323-480.005 479.995s215.333 480.005 480.005 480.005c94.416 0 185.808-27.398 264.259-79.229 9.329-6.227 15.392-16.711 15.392-28.61 0-18.936-15.351-34.287-34.287-34.287-7.036 0-13.577 2.119-19.020 5.755l0.125-0.078c-67.219 44.41-145.536 67.886-226.469 67.886-226.872 0-411.432-184.56-411.432-411.432 0-226.867 184.56-411.432 411.432-411.432s411.427 184.565 411.427 411.432c0 0.037 0 0.081 0 0.125 0 15.050-0.797 29.914-2.35 44.552l0.157-1.822c-0.116 1.059-0.182 2.287-0.182 3.53 0 17.692 13.406 32.253 30.613 34.079l0.15 0.013c1.057 0.116 2.282 0.181 3.523 0.181 17.69 0 32.251-13.399 34.086-30.602l0.013-0.15c1.709-16.459 2.558-33.24 2.558-49.91 0-264.677-215.323-480-479.995-480z" />
<glyph unicode="&#xe723;" glyph-name="cpu" d="M607.998 32.003h-63.999v-96.32c-0.287-17.492-14.481-31.574-31.99-31.68h-0.010c-0.114-0.001-0.249-0.002-0.384-0.002-17.461 0-31.616 14.155-31.616 31.616 0 0.023 0 0.046 0 0.070v-0.004 96.319h-63.998v-96.319c-0.287-17.492-14.481-31.574-31.99-31.68h-0.010c-0.114-0.001-0.249-0.002-0.384-0.002-17.461 0-31.616 14.155-31.616 31.616 0 0.023 0 0.046 0 0.070v-0.004 96.319h-64.512c-70.4 0-127.488 57.6-127.488 127.489v64.511h-96.32c-17.492 0.287-31.574 14.481-31.68 31.99v0.010c0 17.664 13.824 32.001 31.68 32.001h96.32v63.999h-96.32c-17.492 0.287-31.574 14.481-31.68 31.99v0.010c0 17.664 13.824 32.001 31.68 32.001h96.32v63.998h-96.32c-17.492 0.287-31.575 14.482-31.68 31.99v0.010c0 17.664 13.824 32.001 31.68 32.001h96.32v64.511c0 70.4 57.6 127.488 127.488 127.488h64.511v96.127c0 17.601 14.848 31.872 32.001 31.872 0 0 0 0 0 0 17.628 0 31.927-14.254 31.999-31.865v-96.134h63.999v96.127c0 17.601 14.848 31.872 32.002 31.872 0 0 0 0 0 0 17.628 0 31.927-14.254 31.999-31.865v-96.134h63.999v96.127c-0.001 17.601 14.847 31.872 32 31.872 0 0 0 0 0 0 17.628 0 31.927-14.254 31.999-31.865v-96.134h64.511c70.401 0 127.488-57.6 127.488-127.488v-64.511h96.32c17.472 0 31.68-14.848 31.68-32.001 0-17.663-13.823-32-31.68-32h-96.319v-63.999h96.319c17.472 0 31.68-14.848 31.68-32.001 0-17.663-13.823-32-31.68-32h-96.319v-63.999h96.319c17.472 0 31.68-14.848 31.68-32.001 0-17.663-13.823-32-31.68-32h-96.319v-64.511c0-70.401-57.6-127.488-127.489-127.488h-64.511v-96.32c-0.287-17.492-14.481-31.574-31.99-31.68h-0.010c-0.114-0.001-0.249-0.002-0.384-0.002-17.461 0-31.616 14.155-31.616 31.616 0 0.023 0 0.046 0 0.070v-0.004 96.319zM224 608.513v-449.022c0-34.753 28.672-63.487 63.487-63.487h449.023c34.99 0.181 63.306 28.497 63.487 63.47v449.039c-0.181 34.99-28.497 63.306-63.47 63.487h-449.040c-34.99-0.181-63.306-28.497-63.487-63.47v-0.017zM352 480.001c0 35.328 28.416 64 64 64h192c35.327 0 63.999-28.416 63.999-64v-192c0-35.327-28.416-63.999-64-63.999h-192c-35.327 0-63.999 28.416-63.999 64v192zM416 288.001h192v192h-192v-192z" />
<glyph unicode="&#xe725;" glyph-name="type-monitor" horiz-adv-x="1097" d="M935.024 60.701c-0.017 0-0.037 0-0.057 0-15.852 0-28.703 12.851-28.703 28.703 0 0.040 0 0.079 0 0.119v-0.006 265.838c0 201.878-164.136 366.127-365.958 366.127-202.116-0.225-365.902-164.011-366.127-366.106v-265.973c0-15.852-12.851-28.703-28.703-28.703s-28.703 12.851-28.703 28.703v266.007c0 233.689 189.957 423.645 423.419 423.645 233.519 0 423.532-190.013 423.532-423.645v-265.951c0-0.017 0-0.037 0-0.057 0-15.852-12.851-28.703-28.703-28.703 0 0 0 0 0 0v0zM296.448-11.056c-54.298 0-98.481 44.24-98.481 98.481v132.213c0 54.298 44.184 98.538 98.481 98.538 54.241 0 98.425-44.24 98.425-98.538v-132.213c0-54.241-44.184-98.481-98.425-98.481zM785.070-11.056c-54.351 0.096-98.385 44.131-98.481 98.472v132.222c0 54.298 44.184 98.538 98.481 98.538s98.481-44.24 98.481-98.538v-132.213c0-54.241-44.184-98.481-98.481-98.481z" />
<glyph unicode="&#xe726;" glyph-name="monitor" d="M945.813 792.464h-867.635c-0.078 0.001-0.17 0.001-0.262 0.001-17.326 0-31.372-14.046-31.372-31.372 0-0.092 0-0.184 0.001-0.276v0.014-567.575c-0.001-0.078-0.001-0.17-0.001-0.262 0-17.326 14.046-31.372 31.372-31.372 0.092 0 0.184 0 0.276 0.001h132.11c0.083-0.001 0.181-0.001 0.28-0.001 9.818 0 18.582 4.51 24.335 11.571l0.045 0.057 176.323 218.661 80.486-66.523c13.023-10.696 31.632-9.3 43.269 2.793l156.309 168.876c15.36-9.309 33.038-14.42 52.103-14.42 55.37 0 100.957 45.13 100.957 100.957s-45.13 100.957-100.957 100.957c-55.361 0-100.957-45.13-100.957-100.957 0-13.489 2.793-26.056 7.447-38.149l-141.433-152.604-81.873 67.919c-6.516 5.585-14.885 7.913-23.263 6.982s-15.825-5.12-21.402-11.627l-186.554-231.219h-86.063v504.758h804.371v-504.767h-434.52c-0.078 0.001-0.17 0.001-0.262 0.001-17.326 0-31.372-14.046-31.372-31.372 0-0.092 0-0.184 0.001-0.276v0.014-154.456h-184.692c-0.078 0.001-0.17 0.001-0.262 0.001-17.326 0-31.372-14.046-31.372-31.372 0-0.092 0-0.184 0.001-0.276v0.014c-0.001-0.078-0.001-0.17-0.001-0.262 0-17.326 14.046-31.372 31.372-31.372 0.092 0 0.184 0 0.276 0.001h423.801c0.081-0.001 0.176-0.001 0.271-0.001 17.326 0 31.372 14.046 31.372 31.372 0 0.092 0 0.184-0.001 0.276v-0.014c0.001 0.078 0.001 0.17 0.001 0.262 0 17.326-14.046 31.372-31.372 31.372-0.095 0-0.19 0-0.286-0.001h-175.368v122.824h434.511c0.078-0.001 0.17-0.001 0.262-0.001 17.326 0 31.372 14.046 31.372 31.372 0 0.092 0 0.184-0.001 0.276v-0.014 567.575c-0.465 17.678-14.42 31.632-31.642 31.632M743.917 621.726c20.936 0 37.683-16.747 37.683-37.683s-16.747-37.683-37.683-37.683c-0.047 0-0.103 0-0.159 0-20.724 0-37.525 16.8-37.525 37.525 0 0.056 0 0.112 0 0.167v-0.009c-0.465 20.471 16.747 37.683 37.683 37.683" />
<glyph unicode="&#xe729;" glyph-name="memory" d="M947.268 42.735h-158.788c-0.185-0.003-0.404-0.005-0.623-0.005-21.28 0-38.584 17.022-39.039 38.192l-0.001 0.042-0.068 38.229h-52.975v-76.527h-79.326v76.459h-52.975v-76.459h-105.882v76.459h-52.907v-76.459h-79.394v76.459h-52.975l-0.273-38.093c-0.012-10.652-4.458-20.263-11.591-27.089l-0.014-0.013c-7.252-6.93-17.102-11.196-27.948-11.196-0.014 0-0.029 0-0.043 0h-158.718c-0.032 0-0.071 0-0.109 0-10.846 0-20.696 4.265-27.964 11.211l0.015-0.015c-7.147 6.839-11.593 16.45-11.605 27.1v535.008c0 21.163 17.749 38.229 39.663 38.229h873.404c10.513 0 20.685-3.959 28.126-11.127 7.147-6.839 11.593-16.45 11.605-27.1v-535.008c-0.012-10.652-4.458-20.263-11.591-27.089l-0.014-0.013c-7.252-6.93-17.102-11.196-27.948-11.196-0.038 0-0.077 0-0.115 0h0.006zM907.537 224.324h-41.643c-0.226-0.005-0.492-0.007-0.759-0.007-21.28 0-38.585 17.023-39.039 38.194l-0.001 0.042c0 21.163 17.818 38.298 39.799 38.298h41.643v276.89h-793.941v-276.89h40.277c21.982 0 39.799-17.067 39.799-38.229s-17.749-38.229-39.731-38.229h-40.414v-105.062h79.189l0.273 50.79c0 21.163 4.574 25.532 26.487 25.532h582.315c21.845 0 26.419-4.369 26.419-25.532v-50.79h79.394v104.994h-0.068zM748.749 348.57h79.394v178.244h-79.394v-178.313zM563.473 348.57h79.462v178.244h-79.462v-178.313zM378.266 348.57h79.394v178.244h-79.394v-178.313zM192.922 526.814h79.394v-178.313l-78.097 0.137-1.365 178.244z" />
</font>
</defs>
</svg>
